<svg width="14" height="14" viewBox="0 0 14 14" fill="none" xmlns="http://www.w3.org/2000/svg">
<path fill-rule="evenodd" clip-rule="evenodd" d="M11.001 12.25C12.2245 12.25 12.8333 11.6145 12.8333 10.3556V3.64435C12.8333 2.38552 12.2245 1.75 11.001 1.75H3.00473C1.78128 1.75 1.16663 2.37941 1.16663 3.64435V10.3556C1.16663 11.6206 1.78128 12.25 3.00473 12.25H11.001ZM11.0771 11.2662H2.91692C2.39593 11.2662 2.10909 10.979 2.10909 10.4106V4.64815C2.10909 4.08596 2.39593 3.79264 2.91692 3.79264H11.0771C11.5981 3.79264 11.8908 4.08596 11.8908 4.64815V10.4106C11.8908 10.979 11.5981 11.2662 11.0771 11.2662ZM6.20091 5.98642C6.4058 5.98642 6.47604 5.92531 6.47604 5.71143V5.3509C6.47604 5.13702 6.4058 5.0698 6.20091 5.0698H5.85554C5.65065 5.0698 5.58041 5.13702 5.58041 5.3509V5.71143C5.58041 5.92531 5.65065 5.98642 5.85554 5.98642H6.20091ZM8.14438 5.98642C8.34927 5.98642 8.41951 5.92531 8.41951 5.71143V5.3509C8.41951 5.13702 8.34927 5.0698 8.14438 5.0698H7.80486C7.59412 5.0698 7.52973 5.13702 7.52973 5.3509V5.71143C7.52973 5.92531 7.59412 5.98642 7.80486 5.98642H8.14438ZM10.0937 5.98642C10.2986 5.98642 10.363 5.92531 10.363 5.71143V5.3509C10.363 5.13702 10.2986 5.0698 10.0937 5.0698H9.74833C9.54345 5.0698 9.4732 5.13702 9.4732 5.3509V5.71143C9.4732 5.92531 9.54345 5.98642 9.74833 5.98642H10.0937ZM4.25744 7.98466C4.46233 7.98466 4.52672 7.92355 4.52672 7.70967V7.34913C4.52672 7.13525 4.46233 7.07414 4.25744 7.07414H3.91207C3.70718 7.07414 3.63694 7.13525 3.63694 7.34913V7.70967C3.63694 7.92355 3.70718 7.98466 3.91207 7.98466H4.25744ZM6.20091 7.98466C6.4058 7.98466 6.47604 7.92355 6.47604 7.70967V7.34913C6.47604 7.13525 6.4058 7.07414 6.20091 7.07414H5.85554C5.65065 7.07414 5.58041 7.13525 5.58041 7.34913V7.70967C5.58041 7.92355 5.65065 7.98466 5.85554 7.98466H6.20091ZM8.14438 7.98466C8.34927 7.98466 8.41951 7.92355 8.41951 7.70967V7.34913C8.41951 7.13525 8.34927 7.07414 8.14438 7.07414H7.80486C7.59412 7.07414 7.52973 7.13525 7.52973 7.34913V7.70967C7.52973 7.92355 7.59412 7.98466 7.80486 7.98466H8.14438ZM10.0937 7.98466C10.2986 7.98466 10.363 7.92355 10.363 7.70967V7.34913C10.363 7.13525 10.2986 7.07414 10.0937 7.07414H9.74833C9.54345 7.07414 9.4732 7.13525 9.4732 7.34913V7.70967C9.4732 7.92355 9.54345 7.98466 9.74833 7.98466H10.0937ZM4.25744 9.989C4.46233 9.989 4.52672 9.92178 4.52672 9.7079V9.34737C4.52672 9.13349 4.46233 9.07238 4.25744 9.07238H3.91207C3.70718 9.07238 3.63694 9.13349 3.63694 9.34737V9.7079C3.63694 9.92178 3.70718 9.989 3.91207 9.989H4.25744ZM6.20091 9.989C6.4058 9.989 6.47604 9.92178 6.47604 9.7079V9.34737C6.47604 9.13349 6.4058 9.07238 6.20091 9.07238H5.85554C5.65065 9.07238 5.58041 9.13349 5.58041 9.34737V9.7079C5.58041 9.92178 5.65065 9.989 5.85554 9.989H6.20091ZM8.14438 9.989C8.34927 9.989 8.41951 9.92178 8.41951 9.7079V9.34737C8.41951 9.13349 8.34927 9.07238 8.14438 9.07238H7.80486C7.59412 9.07238 7.52973 9.13349 7.52973 9.34737V9.7079C7.52973 9.92178 7.59412 9.989 7.80486 9.989H8.14438Z" fill="#1A1A1A"/>
</svg>
