<svg width="24" height="24" viewBox="0 0 24 24" fill="none" xmlns="http://www.w3.org/2000/svg">
<g id="Icons / ic-profile">
<g id="logo">
<g id="Group 16">
<path id="Ellipse 2 (Stroke)" fill-rule="evenodd" clip-rule="evenodd" d="M3.69668 4.66095C3.32822 4.90658 3.24067 5.14708 3.24067 5.29106C3.24067 5.78811 2.83773 6.19106 2.34067 6.19106C1.84362 6.19106 1.44067 5.78811 1.44067 5.29106C1.44067 4.358 2.00795 3.62343 2.69822 3.16325C3.39477 2.69889 4.30521 2.44092 5.26588 2.44092C6.22656 2.44092 7.13699 2.69889 7.83355 3.16325C8.52381 3.62343 9.09109 4.358 9.09109 5.29106C9.09109 5.78811 8.68815 6.19106 8.19109 6.19106C7.69403 6.19106 7.29109 5.78811 7.29109 5.29106C7.29109 5.14708 7.20354 4.90658 6.83509 4.66095C6.47292 4.4195 5.92076 4.24092 5.26588 4.24092C4.61101 4.24092 4.05884 4.4195 3.69668 4.66095Z" fill="#1A1A1A"/>
<path id="Ellipse 3 (Stroke)" fill-rule="evenodd" clip-rule="evenodd" d="M17.3476 4.66095C16.9791 4.90658 16.8916 5.14708 16.8916 5.29106C16.8916 5.78811 16.4886 6.19106 15.9916 6.19106C15.4945 6.19106 15.0916 5.78811 15.0916 5.29106C15.0916 4.358 15.6588 3.62343 16.3491 3.16325C17.0457 2.69889 17.9561 2.44092 18.9168 2.44092C19.8774 2.44092 20.7879 2.69889 21.4844 3.16325C22.1747 3.62343 22.742 4.358 22.742 5.29106C22.742 5.78811 22.339 6.19106 21.842 6.19106C21.3449 6.19106 20.942 5.78811 20.942 5.29106C20.942 5.14708 20.8544 4.90658 20.486 4.66095C20.1238 4.4195 19.5716 4.24092 18.9168 4.24092C18.2619 4.24092 17.7097 4.4195 17.3476 4.66095Z" fill="#1A1A1A"/>
<path id="Ellipse 4 (Stroke)" fill-rule="evenodd" clip-rule="evenodd" d="M10.4091 19.5703C10.9444 19.1688 11.1915 18.6829 11.1915 18.2219L11.1915 15.2967C11.1915 14.7996 11.5944 14.3967 12.0915 14.3967C12.5885 14.3967 12.9915 14.7996 12.9915 15.2967L12.9915 18.2219C12.9915 19.3765 12.3654 20.3531 11.4891 21.0103C10.6131 21.6674 9.44411 22.0471 8.19118 22.0471C6.93824 22.0471 5.76928 21.6674 4.89327 21.0103C4.01697 20.3531 3.3909 19.3765 3.3909 18.2219C3.3909 17.7249 3.79385 17.3219 4.2909 17.3219C4.78796 17.3219 5.1909 17.7249 5.1909 18.2219C5.1909 18.6829 5.43794 19.1688 5.97327 19.5703C6.50887 19.9721 7.29005 20.2471 8.19118 20.2471C9.09231 20.2471 9.87348 19.972 10.4091 19.5703Z" fill="#1A1A1A"/>
<path id="Ellipse 6 (Stroke)" fill-rule="evenodd" clip-rule="evenodd" d="M13.774 19.5703C13.2387 19.1688 12.9917 18.6829 12.9917 18.2219L12.9916 15.2967C12.9916 14.7996 12.5887 14.3967 12.0916 14.3967C11.5946 14.3967 11.1916 14.7996 11.1916 15.2967L11.1917 18.2219C11.1917 19.3765 11.8177 20.3531 12.694 21.0103C13.57 21.6674 14.739 22.0471 15.9919 22.0471C17.2449 22.0471 18.4138 21.6674 19.2898 21.0103C20.1661 20.3531 20.7922 19.3765 20.7922 18.2219C20.7922 17.7249 20.3893 17.3219 19.8922 17.3219C19.3951 17.3219 18.9922 17.7249 18.9922 18.2219C18.9922 18.6829 18.7452 19.1688 18.2098 19.5703C17.6742 19.972 16.8931 20.2471 15.9919 20.2471C15.0908 20.2471 14.3096 19.972 13.774 19.5703Z" fill="#1A1A1A"/>
<path id="Ellipse 5 (Stroke)" fill-rule="evenodd" clip-rule="evenodd" d="M12.0916 11.3212C10.8125 11.3212 10.0664 12.1564 10.0664 12.8589C10.0664 13.5615 10.8125 14.3966 12.0916 14.3966C13.3707 14.3966 14.1168 13.5615 14.1168 12.8589C14.1168 12.1564 13.3707 11.3212 12.0916 11.3212ZM8.26636 12.8589C8.26636 10.8689 10.1396 9.52124 12.0916 9.52124C14.0436 9.52124 15.9168 10.8689 15.9168 12.8589C15.9168 14.8489 14.0436 16.1966 12.0916 16.1966C10.1396 16.1966 8.26636 14.8489 8.26636 12.8589Z" fill="#1A1A1A"/>
</g>
</g>
</g>
</svg>
