<svg width="32" height="32" viewBox="0 0 32 32" fill="none" xmlns="http://www.w3.org/2000/svg">
<path fill-rule="evenodd" clip-rule="evenodd" d="M16.5702 2.66666C20.4173 2.66666 23.5674 5.74667 23.7187 9.56343L23.7244 9.85103L23.7236 10.7135L24.7308 10.7146C25.6567 10.7146 26.4308 11.376 26.6002 12.2482L26.6258 12.4253L26.6346 12.6073V16.1316C26.6346 17.1133 25.8777 17.9235 24.9138 18.0154L24.7308 18.0241L22.6777 18.024L22.5361 18.2363C22.0685 18.8991 21.4835 19.5225 20.8161 20.0824L20.4757 20.3569L20.2369 20.5342L20.2396 20.5972C20.3155 21.5313 20.95 22.2555 21.8276 22.4129L22.0063 22.4368L22.1909 22.4448C26.9028 22.4448 29.3333 24.0481 29.3333 28.2823C29.3333 28.8628 28.86 29.3333 28.276 29.3333C27.6923 29.3333 27.2189 28.8627 27.2189 28.2823C27.2189 25.3155 25.8412 24.5465 22.1909 24.5465C21.6261 24.5465 21.0769 24.4311 20.57 24.2114L20.4688 24.1626L16.3611 27.1211C16.0751 27.3361 15.7028 27.3893 15.3733 27.274L15.2351 27.2142L15.1044 27.1336L11.1785 24.3066L11.0291 24.3606C10.8335 24.4219 10.6331 24.4684 10.4293 24.4995L10.1212 24.5347L9.80899 24.5465C6.15884 24.5465 4.78113 25.3155 4.78113 28.2823C4.78113 28.8627 4.30775 29.3333 3.724 29.3333C3.14015 29.3333 2.66666 28.8628 2.66666 28.2823C2.66666 24.0482 5.09727 22.4448 9.80899 22.4448C10.772 22.4448 11.586 21.7421 11.7413 20.8179L11.7449 20.7869L11.5128 20.6297C10.6696 20.0301 9.93539 19.329 9.36919 18.564L9.137 18.2323L9.00775 18.024L7.26918 18.0241C6.34333 18.0241 5.56916 17.3628 5.39982 16.4906L5.37415 16.3135L5.36541 16.1316V12.6073C5.36541 11.6254 6.12223 10.8152 7.08615 10.7233L7.26918 10.7146L8.27539 10.7135L8.27575 9.85083C8.27575 6.09729 11.1769 2.98811 14.8509 2.69005L15.1425 2.67239L15.4297 2.66666H16.5702ZM18.3883 21.9474L18.3007 21.693L18.2861 21.7015C17.3745 22.13 16.5174 22.3742 15.9024 22.3742C15.3829 22.3742 14.7194 22.2282 14.0052 21.9622L13.6549 21.8239L13.5627 22.068C13.4524 22.3272 13.3153 22.5742 13.1537 22.8049L12.991 23.0194L15.7229 24.9862L18.8157 22.7602L18.801 22.7388C18.6345 22.4907 18.4961 22.2255 18.3883 21.9474ZM15.8638 9.72229L15.7307 9.825C14.2177 10.9206 12.3734 11.4801 10.4808 11.3877L10.3882 11.38L10.3781 16.0069C10.653 16.8799 11.2836 17.7268 12.1648 18.4737L12.4365 18.6947C13.6415 19.6356 15.0983 20.2727 15.9024 20.2727C16.7256 20.2727 18.3699 19.4532 19.648 18.3158L19.9021 18.0809L19.9577 18.024H18.2374L18.2079 18.0599C17.9547 18.3249 17.6157 18.4959 17.2456 18.5394L17.0582 18.5503C16.1822 18.5503 15.472 17.8443 15.472 16.9735C15.472 16.1024 16.1821 15.3963 17.0582 15.3963C17.5003 15.3963 17.9125 15.5776 18.2079 15.8869L18.2387 15.9224H21.6095V11.3591L21.5145 11.3705C19.5519 11.5276 17.6021 10.9836 16.0125 9.83606L15.8638 9.72229ZM8.67384 13.6134C8.67384 13.1732 8.31705 12.8164 7.87693 12.8164C7.43681 12.8164 7.08002 13.1732 7.08002 13.6134V15.1242C7.08002 15.5643 7.43681 15.9211 7.87693 15.9211C8.31705 15.9211 8.67384 15.5643 8.67384 15.1242V13.6134ZM24.917 13.612C24.917 13.1726 24.5608 12.8164 24.1214 12.8164C23.682 12.8164 23.3258 13.1726 23.3258 13.612V15.1255C23.3258 15.5649 23.682 15.9211 24.1214 15.9211C24.5608 15.9211 24.917 15.5649 24.917 15.1255V13.612ZM18.8407 5.31479L18.8145 5.42039C18.5401 6.39822 18.0864 7.30836 17.4789 8.11282L17.3852 8.22824L17.4358 8.26448C18.6268 9.05799 20.0606 9.41294 21.4898 9.26597L21.5739 9.25483L21.5704 9.21593C21.3712 7.61997 20.4269 6.21882 19.0584 5.43197L18.8407 5.31479ZM16.5702 4.76862H15.4297C12.9418 4.76862 10.8596 6.59997 10.4595 9.00937L10.4211 9.28101L10.4521 9.28419C13.2915 9.48068 15.8933 7.69437 16.7299 5.02698L16.8017 4.774L16.5702 4.76862Z" fill="#1A1A1A"/>
</svg>
