<svg width="46" height="46" viewBox="0 0 46 46" fill="none" xmlns="http://www.w3.org/2000/svg">
<g id="Icons / Catalog / ic-cat-pig">
<g id="Group 15">
<g id="Group">
<path id="Vector" d="M42.5554 8.6618V0H37.9358C34.0809 0 30.8636 2.78155 30.1854 6.44301C28.9282 6.10215 27.6094 5.92067 26.2534 5.92067H19.7463C18.3904 5.92067 17.0715 6.10206 15.8144 6.44301C15.1363 2.78155 11.9188 0 8.064 0H3.4444V8.6618C3.4444 10.9565 4.42447 13.0907 6.11527 14.5754C5.45216 15.9819 4.99891 17.5114 4.7983 19.126L3.56146 29.0772C2.32849 37.8618 9.64115 46.1383 18.5096 45.9982H27.4903C36.3599 46.1383 43.6712 37.8606 42.4384 29.0772L41.2016 19.126C41.0009 17.5114 40.5477 15.9819 39.8846 14.5754C41.5754 13.0907 42.5554 10.9565 42.5554 8.6618ZM6.13962 8.6618V2.69522H8.064C10.764 2.69522 12.9888 4.76892 13.2293 7.40727C10.9586 8.50134 8.99403 10.1504 7.52289 12.189C6.6412 11.242 6.13962 9.99279 6.13962 8.6618ZM36.7594 39.1234C34.4129 41.7796 31.0344 43.303 27.4902 43.303H18.5095C11.2269 43.418 5.22378 36.6214 6.23602 29.4096L7.47285 19.4584C8.24108 13.2772 13.5176 8.61589 19.7463 8.61589H26.2534C32.4822 8.61589 37.7587 13.2772 38.527 19.4584L39.7638 29.4096C40.2009 32.9267 39.1058 36.4673 36.7594 39.1234ZM32.7705 7.40727C33.011 4.76892 35.2358 2.69522 37.9358 2.69522H39.8602V8.6618C39.8602 9.99279 39.3586 11.242 38.4769 12.1889C37.0057 10.1504 35.0412 8.50134 32.7705 7.40727Z" fill="#7B8E98"/>
<path id="Vector (Stroke)" fill-rule="evenodd" clip-rule="evenodd" d="M42.4384 29.0772L41.2016 19.126C41.0009 17.5114 40.5477 15.9819 39.8846 14.5754C41.5754 13.0907 42.5554 10.9565 42.5554 8.6618V0H37.9358C34.2197 0 31.096 2.58489 30.2684 6.05109C30.2375 6.18053 30.2098 6.3112 30.1854 6.44301C30.0566 6.40809 29.9271 6.37484 29.7971 6.34329C28.6576 6.06687 27.4704 5.92067 26.2534 5.92067H19.7463C18.5293 5.92067 17.3421 6.0668 16.2027 6.34327C16.0726 6.37483 15.9432 6.40808 15.8144 6.44301C15.79 6.3112 15.7623 6.18053 15.7314 6.05109C14.9038 2.58489 11.78 0 8.064 0H3.4444V8.6618C3.4444 10.9565 4.42447 13.0907 6.11527 14.5754C5.45216 15.9819 4.99891 17.5114 4.7983 19.126L3.56146 29.0772C2.32849 37.8618 9.64115 46.1383 18.5096 45.9982H27.4903C36.3599 46.1383 43.6712 37.8606 42.4384 29.0772ZM3.8444 0.4V8.6618C3.8444 10.8409 4.77454 12.8657 6.3792 14.2748L6.60551 14.4735L6.47708 14.7459C5.83174 16.1148 5.39056 17.6034 5.19524 19.1753L3.95763 29.1328C2.75879 37.6742 9.88036 45.7344 18.5033 45.5982L18.5096 45.5981L27.4966 45.5982C36.1207 45.7344 43.241 37.673 42.0423 29.1328L42.0415 29.1265L40.8047 19.1753C40.6093 17.6034 40.1681 16.1148 39.5228 14.7459L39.3944 14.4735L39.6207 14.2748C41.2253 12.8657 42.1554 10.8409 42.1554 8.6618V0.4H37.9358C34.2775 0.4 31.2225 3.04026 30.5787 6.51586L30.4996 6.94266L30.0807 6.82907C28.8572 6.49734 27.5735 6.32067 26.2534 6.32067H19.7463C18.4262 6.32067 17.1425 6.49726 15.9191 6.82906L15.5001 6.94269L15.4211 6.51585C14.7774 3.04027 11.7222 0.4 8.064 0.4H3.8444ZM5.73962 2.29522H8.064C10.9729 2.29522 13.3686 4.52867 13.6276 7.37095L13.6528 7.64721L13.4029 7.76762C11.1923 8.83272 9.27955 10.4383 7.84726 12.4231L7.56214 12.8182L7.23013 12.4616C6.27991 11.441 5.73962 10.0945 5.73962 8.6618V2.29522ZM32.347 7.6472L32.3722 7.37095C32.6313 4.52867 35.0269 2.29522 37.9358 2.29522H40.2602V8.6618C40.2602 10.0945 39.7199 11.441 38.7697 12.4615L38.4377 12.8181L38.1526 12.423C36.7202 10.4383 34.8074 8.83272 32.5969 7.76762L32.347 7.6472ZM7.25495 11.8773C6.5403 10.9757 6.13962 9.85141 6.13962 8.6618V2.69522H8.064C10.764 2.69522 12.9888 4.76892 13.2293 7.40727C11.0813 8.44222 9.20726 9.97376 7.76569 11.862C7.68333 11.9698 7.60239 12.0789 7.52289 12.189C7.42924 12.0884 7.33988 11.9844 7.25495 11.8773ZM37.0591 39.3882C34.6368 42.1303 31.1491 43.703 27.4902 43.703H18.5126C10.987 43.8198 4.79543 36.8099 5.83946 29.3571L7.07591 19.4091C7.86903 13.0275 13.3158 8.21589 19.7463 8.21589H26.2534C32.6841 8.21589 38.1307 13.0276 38.9239 19.4091L40.1608 29.3603C40.612 32.9911 39.4815 36.6462 37.0591 39.3882ZM6.23602 29.4096C5.22378 36.6214 11.2269 43.418 18.5095 43.303H27.4902C31.0344 43.303 34.4129 41.7796 36.7594 39.1234C39.1058 36.4673 40.2009 32.9267 39.7638 29.4096L38.527 19.4584C37.7587 13.2772 32.4822 8.61589 26.2534 8.61589H19.7463C13.5176 8.61589 8.24108 13.2772 7.47285 19.4584L6.23602 29.4096ZM38.2341 11.8619C36.7925 9.97377 34.9185 8.44222 32.7705 7.40727C33.011 4.76892 35.2358 2.69522 37.9358 2.69522H39.8602V8.6618C39.8602 9.85141 39.4595 10.9757 38.7449 11.8772C38.66 11.9844 38.5706 12.0884 38.4769 12.1889C38.3974 12.0788 38.3165 11.9698 38.2341 11.8619Z" fill="white"/>
<g id="Vector_2">
<mask id="path-3-inside-1_83_2135" fill="white">
<path d="M30.2591 29.9806L26.0881 27.3883C24.2416 26.2179 21.7582 26.2179 19.9117 27.3883L15.7407 29.9806C10.7766 33.0774 12.9806 40.7772 18.8289 40.8H27.1709C33.0224 40.7762 35.2209 33.0753 30.2591 29.9806ZM27.1709 38.1048H18.8289C15.6731 38.0919 14.4874 33.9388 17.1634 32.2697L21.3343 29.6775C22.3302 29.0462 23.6695 29.0462 24.6654 29.6775L28.8363 32.2697C31.5136 33.9399 30.325 38.0925 27.1709 38.1048Z"/>
</mask>
<path d="M30.2591 29.9806L26.0881 27.3883C24.2416 26.2179 21.7582 26.2179 19.9117 27.3883L15.7407 29.9806C10.7766 33.0774 12.9806 40.7772 18.8289 40.8H27.1709C33.0224 40.7762 35.2209 33.0753 30.2591 29.9806ZM27.1709 38.1048H18.8289C15.6731 38.0919 14.4874 33.9388 17.1634 32.2697L21.3343 29.6775C22.3302 29.0462 23.6695 29.0462 24.6654 29.6775L28.8363 32.2697C31.5136 33.9399 30.325 38.0925 27.1709 38.1048Z" fill="#7B8E98" stroke="white" stroke-width="0.8" mask="url(#path-3-inside-1_83_2135)"/>
</g>
<g id="Union">
<path d="M14.4646 21.8445C14.4646 21.1003 15.0679 20.4968 15.8122 20.4968C16.5565 20.4968 17.1598 21.1003 17.1598 21.8445C17.1598 22.5888 16.5565 23.1922 15.8122 23.1922C15.0679 23.1922 14.4646 22.5888 14.4646 21.8445Z" fill="#7B8E98"/>
<path d="M21.6521 34.4222C21.6521 33.6779 21.0488 33.0745 20.3045 33.0745C19.5603 33.0745 18.9569 33.6779 18.9569 34.4222C18.9569 35.1664 19.5603 35.7699 20.3045 35.7699C21.0488 35.7699 21.6521 35.1664 21.6521 34.4222Z" fill="#7B8E98"/>
<path d="M27.0429 34.4222C27.0429 33.6779 26.4396 33.0745 25.6953 33.0745C24.9511 33.0745 24.3477 33.6779 24.3477 34.4222C24.3477 35.1664 24.9511 35.7699 25.6953 35.7699C26.4396 35.7699 27.0429 35.1664 27.0429 34.4222Z" fill="#7B8E98"/>
<path d="M31.5352 21.8445C31.5352 21.1003 30.9319 20.4968 30.1876 20.4968C29.4434 20.4968 28.84 21.1003 28.84 21.8445C28.84 22.5888 29.4434 23.1922 30.1876 23.1922C30.9319 23.1922 31.5352 22.5888 31.5352 21.8445Z" fill="#7B8E98"/>
</g>
</g>
</g>
</g>
</svg>
