<svg width="46" height="46" viewBox="0 0 46 46" fill="none" xmlns="http://www.w3.org/2000/svg">
<g id="Icons / Catalog / ic-cat-duck">
<g id="Group">
<g id="Vector">
<mask id="path-1-inside-1_83_2131" fill="white">
<path d="M42.9068 23.2117C42.9068 21.2085 41.6435 19.4471 39.813 18.769V16.8131C39.8131 7.54229 32.2708 0 23 0C13.7292 0 6.18694 7.54229 6.18694 16.8131V18.7691C4.35655 19.4473 3.09326 21.2087 3.09326 23.2118C3.09326 25.8244 5.21887 27.95 7.83153 27.95H8.74084L5.97392 36.0229C5.17512 38.3538 5.53836 40.8405 6.97056 42.8453C8.40276 44.8502 10.6373 46 13.1011 46H32.8988C35.3627 46 37.5973 44.8502 39.0294 42.8452C40.4616 40.8404 40.8249 38.3537 40.0261 36.0229L37.2592 27.9499H38.1684C40.7812 27.9499 42.9068 25.8244 42.9068 23.2117ZM23 2.69531C30.7846 2.69531 37.1178 9.02849 37.1178 16.8131V18.5364L32.2614 18.5387C32.2605 18.5387 32.2599 18.5387 32.2591 18.5387C30.2838 18.5387 28.5295 17.3557 27.7894 15.5244C27.016 13.6099 25.179 12.3728 23.1097 12.3728H22.8904C20.8211 12.3728 18.9842 13.6099 18.2106 15.5243C17.4706 17.3557 15.7164 18.5387 13.741 18.5387C13.7403 18.5387 13.7394 18.5387 13.7387 18.5387L8.88225 18.5364V16.8131C8.88225 9.02849 15.2154 2.69531 23 2.69531ZM37.4765 36.8968C37.9896 38.3937 37.7562 39.9908 36.8363 41.2785C35.9165 42.5662 34.4813 43.3047 32.8989 43.3047H13.1011C11.5187 43.3047 10.0836 42.5662 9.16364 41.2785C8.24373 39.9909 8.0105 38.3938 8.52351 36.8968L12.5136 25.2546H7.83144C6.70498 25.2546 5.78848 24.3381 5.78848 23.2117C5.78848 22.2737 6.43069 21.4582 7.3311 21.2309L13.7372 21.2339H13.7409C16.8205 21.2339 19.5557 19.3894 20.7095 16.534C21.0693 15.6435 21.9253 15.0681 22.8902 15.0681H23.1096C24.0745 15.0681 24.9305 15.6434 25.2902 16.5339C26.4441 19.3895 29.1789 21.2339 32.2588 21.2339H32.2624L38.6686 21.2309C39.569 21.4582 40.2113 22.2737 40.2113 23.2117C40.2113 24.3381 39.2948 25.2546 38.1684 25.2546H33.4861L37.4765 36.8968Z"/>
</mask>
<path d="M42.9068 23.2117C42.9068 21.2085 41.6435 19.4471 39.813 18.769V16.8131C39.8131 7.54229 32.2708 0 23 0C13.7292 0 6.18694 7.54229 6.18694 16.8131V18.7691C4.35655 19.4473 3.09326 21.2087 3.09326 23.2118C3.09326 25.8244 5.21887 27.95 7.83153 27.95H8.74084L5.97392 36.0229C5.17512 38.3538 5.53836 40.8405 6.97056 42.8453C8.40276 44.8502 10.6373 46 13.1011 46H32.8988C35.3627 46 37.5973 44.8502 39.0294 42.8452C40.4616 40.8404 40.8249 38.3537 40.0261 36.0229L37.2592 27.9499H38.1684C40.7812 27.9499 42.9068 25.8244 42.9068 23.2117ZM23 2.69531C30.7846 2.69531 37.1178 9.02849 37.1178 16.8131V18.5364L32.2614 18.5387C32.2605 18.5387 32.2599 18.5387 32.2591 18.5387C30.2838 18.5387 28.5295 17.3557 27.7894 15.5244C27.016 13.6099 25.179 12.3728 23.1097 12.3728H22.8904C20.8211 12.3728 18.9842 13.6099 18.2106 15.5243C17.4706 17.3557 15.7164 18.5387 13.741 18.5387C13.7403 18.5387 13.7394 18.5387 13.7387 18.5387L8.88225 18.5364V16.8131C8.88225 9.02849 15.2154 2.69531 23 2.69531ZM37.4765 36.8968C37.9896 38.3937 37.7562 39.9908 36.8363 41.2785C35.9165 42.5662 34.4813 43.3047 32.8989 43.3047H13.1011C11.5187 43.3047 10.0836 42.5662 9.16364 41.2785C8.24373 39.9909 8.0105 38.3938 8.52351 36.8968L12.5136 25.2546H7.83144C6.70498 25.2546 5.78848 24.3381 5.78848 23.2117C5.78848 22.2737 6.43069 21.4582 7.3311 21.2309L13.7372 21.2339H13.7409C16.8205 21.2339 19.5557 19.3894 20.7095 16.534C21.0693 15.6435 21.9253 15.0681 22.8902 15.0681H23.1096C24.0745 15.0681 24.9305 15.6434 25.2902 16.5339C26.4441 19.3895 29.1789 21.2339 32.2588 21.2339H32.2624L38.6686 21.2309C39.569 21.4582 40.2113 22.2737 40.2113 23.2117C40.2113 24.3381 39.2948 25.2546 38.1684 25.2546H33.4861L37.4765 36.8968Z" fill="#7B8E98" stroke="white" stroke-width="0.4" mask="url(#path-1-inside-1_83_2131)"/>
</g>
<g id="Union">
<path d="M18.1738 10.6272C18.1738 9.88291 17.5577 9.27954 16.8134 9.27954C16.0692 9.27954 15.4531 9.88291 15.4531 10.6272C15.4531 11.3715 16.0692 11.9749 16.8134 11.9749C17.5577 11.9749 18.1738 11.3715 18.1738 10.6272Z" fill="#7B8E98"/>
<path d="M30.5465 10.6272C30.5465 9.88291 29.9306 9.27954 29.1863 9.27954C28.442 9.27954 27.826 9.88291 27.826 10.6272C27.826 11.3715 28.442 11.9749 29.1863 11.9749C29.9306 11.9749 30.5465 11.3715 30.5465 10.6272Z" fill="#7B8E98"/>
<path d="M18.176 25.9658C18.0092 25.2401 18.4624 24.5167 19.188 24.35C19.9137 24.1833 20.6372 24.6364 20.8039 25.3621L20.9261 25.8939C21.0928 26.6196 20.6397 27.343 19.914 27.5097C19.1883 27.6764 18.4649 27.2233 18.2981 26.4976L18.176 25.9658Z" fill="#7B8E98"/>
<path d="M26.8293 24.3272C26.1036 24.1605 25.3801 24.6136 25.2134 25.3393L25.0913 25.871C24.9245 26.5968 25.3777 27.3202 26.1034 27.4869C26.8291 27.6537 27.5525 27.2005 27.7193 26.4748L27.8414 25.9431C28.0082 25.2174 27.555 24.4939 26.8293 24.3272Z" fill="#7B8E98"/>
</g>
</g>
</g>
</svg>
