<svg width="46" height="46" viewBox="0 0 46 46" fill="none" xmlns="http://www.w3.org/2000/svg">
<g id="Icons / Catalog / ic-cat-rabbit" clip-path="url(#clip0_83_2134)">
<g id="Group">
<g id="Union">
<path d="M20.1927 28.4824C20.1927 27.7383 19.5895 27.135 18.8454 27.135C18.1013 27.135 17.498 27.7383 17.498 28.4824C17.498 29.2265 18.1013 29.8298 18.8454 29.8298C19.5895 29.8298 20.1927 29.2265 20.1927 28.4824Z" fill="#7B8E98"/>
<path d="M28.5019 28.4824C28.5019 27.7383 27.8987 27.135 27.1546 27.135C26.4105 27.135 25.8073 27.7383 25.8073 28.4824C25.8073 29.2265 26.4105 29.8298 27.1546 29.8298C27.8987 29.8298 28.5019 29.2265 28.5019 28.4824Z" fill="#7B8E98"/>
</g>
<g id="Vector">
<mask id="path-2-inside-1_83_2134" fill="white">
<path d="M34.0738 28.0818L33.9051 25.4711C33.7905 23.6975 33.2528 22.0427 32.3947 20.603C33.2509 19.7294 33.8755 18.6435 34.1955 17.4494L38.6489 0.829137L36.5134 0.25689C32.822 -0.8144 28.6754 1.57977 27.7575 5.31208L25.0436 15.4407C23.7245 15.1846 22.2755 15.1846 20.9564 15.4407L18.2424 5.31208C17.3247 1.57968 13.1777 -0.81449 9.48656 0.25689L7.35107 0.829137L11.8046 17.4495C12.1245 18.6435 12.7491 19.7295 13.6054 20.6031C12.7472 22.0428 12.2096 23.6975 12.0949 25.4711L11.9263 28.0819C9.41874 30.0229 7.98126 33.0153 8.05105 36.2159C8.06326 41.3649 12.5783 45.9292 17.7271 45.9946C19.581 46.0557 21.4062 45.605 23.0001 44.6945C24.5024 45.551 26.1944 45.9998 27.9443 45.9999C28.0536 45.9999 28.163 45.9981 28.2731 45.9946C33.422 45.9292 37.9368 41.3647 37.9491 36.2159C38.0189 33.0152 36.5813 30.0228 34.0738 28.0818ZM30.3602 6.00954C30.6682 4.86029 31.4053 3.89965 32.4357 3.30468C33.3252 2.79118 34.3414 2.603 35.342 2.75947L31.5926 16.7522C31.4249 17.3779 31.1228 17.9559 30.7136 18.4477C29.8171 17.5535 28.7675 16.8143 27.6102 16.2725L30.3602 6.00954ZM10.6579 2.75938C12.8317 2.3807 15.1089 3.85923 15.6396 6.00954L18.3896 16.2724C17.2322 16.8142 16.1828 17.5534 15.2862 18.4476C14.877 17.9559 14.5749 17.3779 14.4072 16.7521L10.6579 2.75938ZM35.255 36.157C35.2142 38.0226 34.4614 39.7884 33.1349 41.1291C31.8083 42.47 30.051 43.2413 28.1864 43.3013C26.8237 43.3452 25.5088 43.0196 24.3474 42.3607V38.2422L25.2243 37.6334C25.8356 37.2091 25.9871 36.3696 25.5627 35.7583C25.1384 35.147 24.2989 34.9955 23.6876 35.4198L23.0001 35.8972L22.3125 35.4198C21.7012 34.9955 20.8617 35.147 20.4374 35.7583C20.0131 36.3696 20.1646 37.2091 20.7758 37.6334L21.6528 38.2422V42.3606C20.4911 43.0196 19.1758 43.3453 17.8137 43.3013C15.9492 43.2413 14.1918 42.47 12.8653 41.1291C9.63575 37.9769 10.2054 32.3677 13.9817 29.9195L14.5317 29.5497L14.784 25.6449C15.7835 15.4276 30.2205 15.4351 31.2161 25.6449L31.4684 29.5497L32.0184 29.9195C34.0997 31.319 35.3097 33.6507 35.255 36.157Z"/>
</mask>
<path d="M34.0738 28.0818L33.9051 25.4711C33.7905 23.6975 33.2528 22.0427 32.3947 20.603C33.2509 19.7294 33.8755 18.6435 34.1955 17.4494L38.6489 0.829137L36.5134 0.25689C32.822 -0.8144 28.6754 1.57977 27.7575 5.31208L25.0436 15.4407C23.7245 15.1846 22.2755 15.1846 20.9564 15.4407L18.2424 5.31208C17.3247 1.57968 13.1777 -0.81449 9.48656 0.25689L7.35107 0.829137L11.8046 17.4495C12.1245 18.6435 12.7491 19.7295 13.6054 20.6031C12.7472 22.0428 12.2096 23.6975 12.0949 25.4711L11.9263 28.0819C9.41874 30.0229 7.98126 33.0153 8.05105 36.2159C8.06326 41.3649 12.5783 45.9292 17.7271 45.9946C19.581 46.0557 21.4062 45.605 23.0001 44.6945C24.5024 45.551 26.1944 45.9998 27.9443 45.9999C28.0536 45.9999 28.163 45.9981 28.2731 45.9946C33.422 45.9292 37.9368 41.3647 37.9491 36.2159C38.0189 33.0152 36.5813 30.0228 34.0738 28.0818ZM30.3602 6.00954C30.6682 4.86029 31.4053 3.89965 32.4357 3.30468C33.3252 2.79118 34.3414 2.603 35.342 2.75947L31.5926 16.7522C31.4249 17.3779 31.1228 17.9559 30.7136 18.4477C29.8171 17.5535 28.7675 16.8143 27.6102 16.2725L30.3602 6.00954ZM10.6579 2.75938C12.8317 2.3807 15.1089 3.85923 15.6396 6.00954L18.3896 16.2724C17.2322 16.8142 16.1828 17.5534 15.2862 18.4476C14.877 17.9559 14.5749 17.3779 14.4072 16.7521L10.6579 2.75938ZM35.255 36.157C35.2142 38.0226 34.4614 39.7884 33.1349 41.1291C31.8083 42.47 30.051 43.2413 28.1864 43.3013C26.8237 43.3452 25.5088 43.0196 24.3474 42.3607V38.2422L25.2243 37.6334C25.8356 37.2091 25.9871 36.3696 25.5627 35.7583C25.1384 35.147 24.2989 34.9955 23.6876 35.4198L23.0001 35.8972L22.3125 35.4198C21.7012 34.9955 20.8617 35.147 20.4374 35.7583C20.0131 36.3696 20.1646 37.2091 20.7758 37.6334L21.6528 38.2422V42.3606C20.4911 43.0196 19.1758 43.3453 17.8137 43.3013C15.9492 43.2413 14.1918 42.47 12.8653 41.1291C9.63575 37.9769 10.2054 32.3677 13.9817 29.9195L14.5317 29.5497L14.784 25.6449C15.7835 15.4276 30.2205 15.4351 31.2161 25.6449L31.4684 29.5497L32.0184 29.9195C34.0997 31.319 35.3097 33.6507 35.255 36.157Z" fill="#7B8E98" stroke="white" stroke-width="0.8" mask="url(#path-2-inside-1_83_2134)"/>
</g>
</g>
</g>
<defs>
<clipPath id="clip0_83_2134">
<rect width="46" height="46" fill="white"/>
</clipPath>
</defs>
</svg>
