<svg width="46" height="46" viewBox="0 0 46 46" fill="none" xmlns="http://www.w3.org/2000/svg">
<g id="Icons / Catalog / ic-cat-deer">
<g id="Group">
<g id="Union">
<path d="M19.7897 27.0117C19.7897 26.2674 19.1737 25.6641 18.4294 25.6641C17.6851 25.6641 17.0691 26.2674 17.0691 27.0117C17.0691 27.756 17.6851 28.3594 18.4294 28.3594C19.1737 28.3594 19.7897 27.756 19.7897 27.0117Z" fill="#7B8E98"/>
<path d="M29.1259 27.0117C29.1259 26.2674 28.5098 25.6641 27.7655 25.6641C27.0212 25.6641 26.4052 26.2674 26.4052 27.0117C26.4052 27.756 27.0212 28.3594 27.7655 28.3594C28.5098 28.3594 29.1259 27.756 29.1259 27.0117Z" fill="#7B8E98"/>
</g>
<g id="Vector">
<mask id="path-2-inside-1_83_2136" fill="white">
<path d="M29.309 13.5797L33.8224 13.5655L33.8505 13.5651C37.2987 13.4823 40.4745 11.8879 42.5633 9.19075C44.3175 6.92569 45.1062 4.12084 44.8083 1.32811C44.7293 0.587996 43.9958 0.136885 43.2709 0.305739C42.546 0.474593 42.1073 1.20045 42.1561 1.94316C42.2872 3.93702 41.6866 5.92075 40.4323 7.54032C39.2488 9.06856 37.6039 10.1314 35.754 10.6012L37.3746 5.56391C37.6026 4.85536 37.213 4.09617 36.5045 3.86822C35.7959 3.64027 35.0368 4.02985 34.8088 4.73837L32.8349 10.8733L30.0501 10.8821L30.6805 8.58725C30.8777 7.86956 30.4557 7.12792 29.7381 6.93073C29.0204 6.73354 28.2787 7.15551 28.0815 7.87321L25.9955 15.4659H20.0044L17.9184 7.87321C17.7212 7.15551 16.9795 6.73354 16.2618 6.93073C15.5441 7.12792 15.1222 7.86956 15.3193 8.58725L15.9498 10.8821L13.1649 10.8733L11.1911 4.73833C10.9632 4.02984 10.204 3.64027 9.49555 3.86823C8.78707 4.09618 8.39751 4.8553 8.62546 5.56379L10.2462 10.6012C8.39637 10.1314 6.75142 9.06856 5.56791 7.54032C4.3135 5.92073 3.71289 3.93698 3.84403 1.9431C3.89288 1.20042 3.45419 0.474595 2.72931 0.305742C2.00442 0.136887 1.27092 0.587988 1.19196 1.32809C0.894003 4.12089 1.68273 6.92575 3.43691 9.19075C5.52577 11.8879 8.70139 13.4823 12.1496 13.5651L16.6912 13.5796L17.2094 15.4659H1.55737V16.8135C1.55737 20.9679 4.93721 24.3477 9.09158 24.3477H10.6585C10.1147 26.7957 10.3678 29.3874 11.4093 31.6816C12.5985 34.3016 13.3994 36.5518 14.0058 38.9775C15.0395 43.1122 18.7381 46 23.0001 46C27.2585 46 30.9544 43.1171 31.9917 38.9881L31.9945 38.9769C32.6044 36.5373 33.4128 34.2706 34.6157 31.6272C35.6499 29.3543 35.9033 26.7803 35.3652 24.3477H36.9086C41.0629 24.3477 44.4428 20.9678 44.4428 16.8135V15.4659H28.7908L29.309 13.5797ZM9.09158 21.6524C6.89095 21.6524 5.02876 20.1757 4.44369 18.1613H14.3689C13.2284 19.1312 12.2982 20.3144 11.6217 21.6524H9.09158ZM32.1623 30.511C30.8907 33.3056 30.0331 35.7124 29.3822 38.3131L29.3796 38.3239C28.758 40.81 26.778 42.6599 24.3478 43.1658V40.6229L25.9021 39.3628C26.4803 38.8942 26.5691 38.0455 26.1004 37.4673C25.6317 36.8891 24.7831 36.8004 24.2049 37.2691L23.0001 38.2457L21.7953 37.269C21.2171 36.8004 20.3684 36.8891 19.8997 37.4673C19.4311 38.0455 19.5198 38.8942 20.098 39.3628L21.6525 40.6229V43.1657C19.2223 42.6598 17.2423 40.8099 16.6208 38.3237C15.9733 35.7338 15.123 33.3416 13.8636 30.5675C12.1242 26.872 13.3475 21.9398 16.8641 19.6438C18.2932 18.6738 19.9616 18.1612 21.6888 18.1612H24.3357C26.0711 18.1612 27.7459 18.6782 29.1792 19.6566C32.6036 21.8965 33.9237 26.7828 32.1623 30.511ZM36.9086 21.6524L34.4029 21.6523C33.7266 20.3144 32.796 19.1316 31.6549 18.1612H41.5566C40.9716 20.1757 39.1094 21.6524 36.9086 21.6524Z"/>
</mask>
<path d="M29.309 13.5797L33.8224 13.5655L33.8505 13.5651C37.2987 13.4823 40.4745 11.8879 42.5633 9.19075C44.3175 6.92569 45.1062 4.12084 44.8083 1.32811C44.7293 0.587996 43.9958 0.136885 43.2709 0.305739C42.546 0.474593 42.1073 1.20045 42.1561 1.94316C42.2872 3.93702 41.6866 5.92075 40.4323 7.54032C39.2488 9.06856 37.6039 10.1314 35.754 10.6012L37.3746 5.56391C37.6026 4.85536 37.213 4.09617 36.5045 3.86822C35.7959 3.64027 35.0368 4.02985 34.8088 4.73837L32.8349 10.8733L30.0501 10.8821L30.6805 8.58725C30.8777 7.86956 30.4557 7.12792 29.7381 6.93073C29.0204 6.73354 28.2787 7.15551 28.0815 7.87321L25.9955 15.4659H20.0044L17.9184 7.87321C17.7212 7.15551 16.9795 6.73354 16.2618 6.93073C15.5441 7.12792 15.1222 7.86956 15.3193 8.58725L15.9498 10.8821L13.1649 10.8733L11.1911 4.73833C10.9632 4.02984 10.204 3.64027 9.49555 3.86823C8.78707 4.09618 8.39751 4.8553 8.62546 5.56379L10.2462 10.6012C8.39637 10.1314 6.75142 9.06856 5.56791 7.54032C4.3135 5.92073 3.71289 3.93698 3.84403 1.9431C3.89288 1.20042 3.45419 0.474595 2.72931 0.305742C2.00442 0.136887 1.27092 0.587988 1.19196 1.32809C0.894003 4.12089 1.68273 6.92575 3.43691 9.19075C5.52577 11.8879 8.70139 13.4823 12.1496 13.5651L16.6912 13.5796L17.2094 15.4659H1.55737V16.8135C1.55737 20.9679 4.93721 24.3477 9.09158 24.3477H10.6585C10.1147 26.7957 10.3678 29.3874 11.4093 31.6816C12.5985 34.3016 13.3994 36.5518 14.0058 38.9775C15.0395 43.1122 18.7381 46 23.0001 46C27.2585 46 30.9544 43.1171 31.9917 38.9881L31.9945 38.9769C32.6044 36.5373 33.4128 34.2706 34.6157 31.6272C35.6499 29.3543 35.9033 26.7803 35.3652 24.3477H36.9086C41.0629 24.3477 44.4428 20.9678 44.4428 16.8135V15.4659H28.7908L29.309 13.5797ZM9.09158 21.6524C6.89095 21.6524 5.02876 20.1757 4.44369 18.1613H14.3689C13.2284 19.1312 12.2982 20.3144 11.6217 21.6524H9.09158ZM32.1623 30.511C30.8907 33.3056 30.0331 35.7124 29.3822 38.3131L29.3796 38.3239C28.758 40.81 26.778 42.6599 24.3478 43.1658V40.6229L25.9021 39.3628C26.4803 38.8942 26.5691 38.0455 26.1004 37.4673C25.6317 36.8891 24.7831 36.8004 24.2049 37.2691L23.0001 38.2457L21.7953 37.269C21.2171 36.8004 20.3684 36.8891 19.8997 37.4673C19.4311 38.0455 19.5198 38.8942 20.098 39.3628L21.6525 40.6229V43.1657C19.2223 42.6598 17.2423 40.8099 16.6208 38.3237C15.9733 35.7338 15.123 33.3416 13.8636 30.5675C12.1242 26.872 13.3475 21.9398 16.8641 19.6438C18.2932 18.6738 19.9616 18.1612 21.6888 18.1612H24.3357C26.0711 18.1612 27.7459 18.6782 29.1792 19.6566C32.6036 21.8965 33.9237 26.7828 32.1623 30.511ZM36.9086 21.6524L34.4029 21.6523C33.7266 20.3144 32.796 19.1316 31.6549 18.1612H41.5566C40.9716 20.1757 39.1094 21.6524 36.9086 21.6524Z" fill="#7B8E98" stroke="white" stroke-width="0.8" mask="url(#path-2-inside-1_83_2136)"/>
</g>
</g>
</g>
</svg>
