<svg width="46" height="46" viewBox="0 0 46 46" fill="none" xmlns="http://www.w3.org/2000/svg">
<g id="Icons / Catalog / ic-cat-sheep">
<g id="Group">
<g id="Vector">
<mask id="path-1-inside-1_83_2141" fill="white">
<path d="M36.4766 9.52344H35.1289C35.1289 6.55105 32.7107 4.13281 29.7383 4.13281C29.3166 4.13281 28.8991 4.18438 28.4883 4.28672C27.2392 2.52443 25.1969 1.4375 23 1.4375C20.8031 1.4375 18.7607 2.52452 17.5117 4.28672C17.101 4.18429 16.6834 4.13281 16.2617 4.13281C13.2893 4.13281 10.8711 6.55105 10.8711 9.52344H9.52344C4.27216 9.52344 0 13.7553 0 18.957C0 19.7013 0.603391 20.3047 1.34766 20.3047H10.8711V32.4336C10.8711 39.1211 16.3115 44.5619 22.9988 44.5625C22.9992 44.5625 22.9996 44.5626 23 44.5626C23.0004 44.5626 23.0008 44.5625 23.0012 44.5625C29.6885 44.5618 35.1289 39.1211 35.1289 32.4336V20.3047H44.6523C45.3966 20.3047 46 19.7013 46 18.957C46 13.7553 41.7278 9.52344 36.4766 9.52344ZM16.2617 6.82812C16.6716 6.82812 17.0837 6.93369 17.4867 7.14186C17.8143 7.31103 18.1969 7.33871 18.5455 7.21823C18.894 7.09784 19.1779 6.83989 19.3311 6.50451C19.9892 5.06377 21.4294 4.13281 23 4.13281C24.5706 4.13281 26.0108 5.06377 26.669 6.5046C26.8222 6.83998 27.1062 7.09793 27.4547 7.21832C27.803 7.33871 28.1858 7.31112 28.5134 7.14186C28.9164 6.93369 29.3284 6.82812 29.7383 6.82812C31.2245 6.82812 32.4336 8.03724 32.4336 9.52344C32.4336 10.5566 31.8308 11.512 30.8978 11.9577C30.6196 12.0905 30.3954 12.3147 30.2626 12.5929C29.9146 13.3212 29.7383 14.1022 29.7383 14.9141C29.7383 16.4003 28.5292 17.6094 27.043 17.6094C25.5568 17.6094 24.3477 16.4003 24.3477 14.9141C24.3477 14.1698 23.7443 13.5664 23 13.5664C22.2557 13.5664 21.6523 14.1698 21.6523 14.9141C21.6523 16.4003 20.4432 17.6094 18.957 17.6094C17.4708 17.6094 16.2617 16.4003 16.2617 14.9141C16.2617 14.1022 16.0854 13.3212 15.7374 12.5929C15.6045 12.3147 15.3804 12.0905 15.1022 11.9577C14.1692 11.5119 13.5664 10.5566 13.5664 9.52344C13.5664 8.03724 14.7755 6.82812 16.2617 6.82812ZM10.8711 17.6094H2.8325C3.46707 14.5375 6.22599 12.2188 9.52344 12.2188H10.8711C11.1461 12.2188 11.4136 12.2589 11.6701 12.3385C12.1105 13.0566 12.7169 13.6727 13.4488 14.1223C13.527 14.3766 13.5664 14.6417 13.5664 14.9141C13.5664 16.4003 12.3573 17.6094 10.8711 17.6094ZM32.4336 32.4336C32.4336 37.1778 28.9132 41.1146 24.3477 41.7705V38.3824L26.6482 36.0819C27.1745 35.5556 27.1745 34.7023 26.6482 34.176C26.122 33.6497 25.2686 33.6497 24.7423 34.176L23 35.9184L21.2576 34.1759C20.7314 33.6496 19.878 33.6496 19.3517 34.1759C18.8254 34.7022 18.8254 35.5555 19.3517 36.0818L21.6523 38.3824V41.7705C17.0868 41.1146 13.5664 37.1778 13.5664 32.4336V19.5795C14.0737 19.2853 14.5285 18.9112 14.9141 18.4739C15.9026 19.5953 17.3481 20.3047 18.957 20.3047C20.566 20.3047 22.0114 19.5953 23 18.4739C23.9886 19.5953 25.434 20.3047 27.043 20.3047C28.6519 20.3047 30.0974 19.5953 31.0859 18.4739C31.4715 18.9112 31.9263 19.2853 32.4336 19.5795V32.4336ZM35.1289 17.6094C33.6427 17.6094 32.4336 16.4003 32.4336 14.9141C32.4336 14.6417 32.473 14.3766 32.5512 14.1223C33.2831 13.6728 33.8895 13.0567 34.3299 12.3385C34.5864 12.2589 34.8539 12.2188 35.1289 12.2188H36.4766C39.774 12.2188 42.533 14.5375 43.1675 17.6094H35.1289Z"/>
</mask>
<path d="M36.4766 9.52344H35.1289C35.1289 6.55105 32.7107 4.13281 29.7383 4.13281C29.3166 4.13281 28.8991 4.18438 28.4883 4.28672C27.2392 2.52443 25.1969 1.4375 23 1.4375C20.8031 1.4375 18.7607 2.52452 17.5117 4.28672C17.101 4.18429 16.6834 4.13281 16.2617 4.13281C13.2893 4.13281 10.8711 6.55105 10.8711 9.52344H9.52344C4.27216 9.52344 0 13.7553 0 18.957C0 19.7013 0.603391 20.3047 1.34766 20.3047H10.8711V32.4336C10.8711 39.1211 16.3115 44.5619 22.9988 44.5625C22.9992 44.5625 22.9996 44.5626 23 44.5626C23.0004 44.5626 23.0008 44.5625 23.0012 44.5625C29.6885 44.5618 35.1289 39.1211 35.1289 32.4336V20.3047H44.6523C45.3966 20.3047 46 19.7013 46 18.957C46 13.7553 41.7278 9.52344 36.4766 9.52344ZM16.2617 6.82812C16.6716 6.82812 17.0837 6.93369 17.4867 7.14186C17.8143 7.31103 18.1969 7.33871 18.5455 7.21823C18.894 7.09784 19.1779 6.83989 19.3311 6.50451C19.9892 5.06377 21.4294 4.13281 23 4.13281C24.5706 4.13281 26.0108 5.06377 26.669 6.5046C26.8222 6.83998 27.1062 7.09793 27.4547 7.21832C27.803 7.33871 28.1858 7.31112 28.5134 7.14186C28.9164 6.93369 29.3284 6.82812 29.7383 6.82812C31.2245 6.82812 32.4336 8.03724 32.4336 9.52344C32.4336 10.5566 31.8308 11.512 30.8978 11.9577C30.6196 12.0905 30.3954 12.3147 30.2626 12.5929C29.9146 13.3212 29.7383 14.1022 29.7383 14.9141C29.7383 16.4003 28.5292 17.6094 27.043 17.6094C25.5568 17.6094 24.3477 16.4003 24.3477 14.9141C24.3477 14.1698 23.7443 13.5664 23 13.5664C22.2557 13.5664 21.6523 14.1698 21.6523 14.9141C21.6523 16.4003 20.4432 17.6094 18.957 17.6094C17.4708 17.6094 16.2617 16.4003 16.2617 14.9141C16.2617 14.1022 16.0854 13.3212 15.7374 12.5929C15.6045 12.3147 15.3804 12.0905 15.1022 11.9577C14.1692 11.5119 13.5664 10.5566 13.5664 9.52344C13.5664 8.03724 14.7755 6.82812 16.2617 6.82812ZM10.8711 17.6094H2.8325C3.46707 14.5375 6.22599 12.2188 9.52344 12.2188H10.8711C11.1461 12.2188 11.4136 12.2589 11.6701 12.3385C12.1105 13.0566 12.7169 13.6727 13.4488 14.1223C13.527 14.3766 13.5664 14.6417 13.5664 14.9141C13.5664 16.4003 12.3573 17.6094 10.8711 17.6094ZM32.4336 32.4336C32.4336 37.1778 28.9132 41.1146 24.3477 41.7705V38.3824L26.6482 36.0819C27.1745 35.5556 27.1745 34.7023 26.6482 34.176C26.122 33.6497 25.2686 33.6497 24.7423 34.176L23 35.9184L21.2576 34.1759C20.7314 33.6496 19.878 33.6496 19.3517 34.1759C18.8254 34.7022 18.8254 35.5555 19.3517 36.0818L21.6523 38.3824V41.7705C17.0868 41.1146 13.5664 37.1778 13.5664 32.4336V19.5795C14.0737 19.2853 14.5285 18.9112 14.9141 18.4739C15.9026 19.5953 17.3481 20.3047 18.957 20.3047C20.566 20.3047 22.0114 19.5953 23 18.4739C23.9886 19.5953 25.434 20.3047 27.043 20.3047C28.6519 20.3047 30.0974 19.5953 31.0859 18.4739C31.4715 18.9112 31.9263 19.2853 32.4336 19.5795V32.4336ZM35.1289 17.6094C33.6427 17.6094 32.4336 16.4003 32.4336 14.9141C32.4336 14.6417 32.473 14.3766 32.5512 14.1223C33.2831 13.6728 33.8895 13.0567 34.3299 12.3385C34.5864 12.2589 34.8539 12.2188 35.1289 12.2188H36.4766C39.774 12.2188 42.533 14.5375 43.1675 17.6094H35.1289Z" fill="#7B8E98" stroke="white" stroke-width="0.8" mask="url(#path-1-inside-1_83_2141)"/>
</g>
<path id="Vector_2" d="M17.6094 25.6953C18.3537 25.6953 18.957 25.0919 18.957 24.3477C18.957 23.6034 18.3537 23 17.6094 23C16.8651 23 16.2617 23.6034 16.2617 24.3477C16.2617 25.0919 16.8651 25.6953 17.6094 25.6953Z" fill="#7B8E98"/>
<path id="Vector_3" d="M28.3906 25.6953C29.1349 25.6953 29.7383 25.0919 29.7383 24.3477C29.7383 23.6034 29.1349 23 28.3906 23C27.6463 23 27.043 23.6034 27.043 24.3477C27.043 25.0919 27.6463 25.6953 28.3906 25.6953Z" fill="#7B8E98"/>
</g>
</g>
</svg>
