<svg width="46" height="46" viewBox="0 0 46 46" fill="none" xmlns="http://www.w3.org/2000/svg">
<g id="Icons / Catalog / ic-cat-cow" clip-path="url(#clip0_83_2138)">
<g id="Group">
<g id="Vector">
<mask id="path-1-inside-1_83_2138" fill="white">
<path d="M45.9924 7.92853V1.34728C45.9924 0.603197 45.3892 0 44.6451 0C43.901 0 43.32 0.620361 43.0717 1.32179C42.5259 2.86365 41.0532 3.97114 39.3267 3.97114H6.6735C4.94702 3.97114 3.47431 2.86365 2.92851 1.32179C2.68021 0.62036 2.09917 0 1.35509 0C0.611008 0 0.0078125 0.603195 0.0078125 1.34727V7.92853C0.0078125 10.4139 1.37503 12.5859 3.39684 13.7319C2.373 14.7997 1.7431 16.248 1.7431 17.8405V23.972H4.92159C6.1221 23.972 7.24061 23.614 8.17598 22.9992C8.24568 25.1009 8.76429 27.1942 9.68637 29.0827C10.501 30.7513 10.9316 32.6147 10.9316 34.4715V38.2709H10.9371C10.6992 43.5558 16.0716 47.4075 21 45.508C21.687 45.247 22.4054 45.1146 23.1351 45.1146C23.8648 45.1146 24.5832 45.247 25.2703 45.508C26.1122 45.8278 26.9991 45.9899 27.9065 45.9899C32.0098 46.0802 35.5799 42.3688 35.3333 38.2709H35.3387V34.4142C35.3387 32.5504 35.7193 30.7404 36.4702 29.0344C37.3145 27.1162 37.7693 25.0887 37.8244 23.0009C38.7592 23.6147 39.8769 23.9721 41.0763 23.9721H44.2548V17.8406C44.2548 16.2484 43.6252 14.8005 42.6019 13.7328C44.6245 12.587 45.9924 10.4145 45.9924 7.92853ZM2.70236 5.35057C3.81225 6.17636 5.18683 6.66569 6.6735 6.66569H10.7442C9.3844 8.05077 8.46861 9.87319 8.22978 11.8998H6.6735C4.48382 11.8998 2.70236 10.1183 2.70236 7.92853V5.35057ZM4.9215 21.2775H4.43756V17.8406C4.43756 16.0506 5.89388 14.5943 7.68387 14.5943H8.16781V18.0312C8.16781 19.8212 6.71149 21.2775 4.9215 21.2775ZM10.8624 22.5116V12.9582C10.8624 9.48849 13.6852 6.66569 17.1548 6.66569H28.8432C31.9522 6.66569 34.5419 8.93225 35.0466 11.8998H30.7857C26.5673 11.8998 23.1353 15.3317 23.1353 19.5501V21.3939C23.1353 25.6123 26.5673 29.0443 30.7857 29.0443H33.5685C33.1239 30.2927 32.8386 31.5818 32.715 32.8988C31.4633 31.8322 29.9024 31.2104 28.2595 31.1341C27.2493 31.0867 26.2524 31.2419 25.3148 31.5912C23.9157 32.1163 22.3547 32.1162 20.9557 31.5913C20.0181 31.2419 19.0204 31.0864 18.0111 31.1341C16.3627 31.2107 14.797 31.8363 13.5433 32.9092C13.3596 31.1736 12.8724 29.4667 12.1078 27.9005C11.2929 26.232 10.8624 24.3685 10.8624 22.5116ZM35.1356 22.5689C35.1356 23.8607 34.9527 25.1265 34.5906 26.3497H30.7857C28.053 26.3497 25.8299 24.1265 25.8299 21.3939V19.5501C25.8299 16.8175 28.053 14.5943 30.7857 14.5943H35.1357L35.1356 22.5689ZM31.3333 41.8294C30.0538 43.2014 27.9718 43.6644 26.2273 42.989C24.2481 42.2311 22.0223 42.2312 20.043 42.989C18.2985 43.6642 16.2166 43.2015 14.9371 41.8294C14.0347 40.8848 13.571 39.6429 13.6313 38.3327C13.7422 35.9176 15.7209 33.9379 18.1361 33.8256C18.7828 33.7958 19.4179 33.8937 20.0148 34.1161C22.015 34.8669 24.2551 34.867 26.2553 34.116C26.8521 33.8937 27.4871 33.7956 28.134 33.8256C30.5491 33.9379 32.5279 35.9176 32.6388 38.3327C32.6993 39.6429 32.2355 40.8847 31.3333 41.8294ZM41.5603 21.2775H41.0763C39.2863 21.2775 37.83 19.8212 37.83 18.0312V14.5943H38.314C40.104 14.5943 41.5603 16.0506 41.5603 17.8406V21.2775ZM43.2978 7.92853C43.2978 10.1183 41.5164 11.8998 39.3267 11.8998H37.7682C37.5293 9.8731 36.6135 8.05077 35.2537 6.66569H39.3267C40.8134 6.66569 42.1878 6.17645 43.2978 5.35048V7.92853Z"/>
</mask>
<path d="M45.9924 7.92853V1.34728C45.9924 0.603197 45.3892 0 44.6451 0C43.901 0 43.32 0.620361 43.0717 1.32179C42.5259 2.86365 41.0532 3.97114 39.3267 3.97114H6.6735C4.94702 3.97114 3.47431 2.86365 2.92851 1.32179C2.68021 0.62036 2.09917 0 1.35509 0C0.611008 0 0.0078125 0.603195 0.0078125 1.34727V7.92853C0.0078125 10.4139 1.37503 12.5859 3.39684 13.7319C2.373 14.7997 1.7431 16.248 1.7431 17.8405V23.972H4.92159C6.1221 23.972 7.24061 23.614 8.17598 22.9992C8.24568 25.1009 8.76429 27.1942 9.68637 29.0827C10.501 30.7513 10.9316 32.6147 10.9316 34.4715V38.2709H10.9371C10.6992 43.5558 16.0716 47.4075 21 45.508C21.687 45.247 22.4054 45.1146 23.1351 45.1146C23.8648 45.1146 24.5832 45.247 25.2703 45.508C26.1122 45.8278 26.9991 45.9899 27.9065 45.9899C32.0098 46.0802 35.5799 42.3688 35.3333 38.2709H35.3387V34.4142C35.3387 32.5504 35.7193 30.7404 36.4702 29.0344C37.3145 27.1162 37.7693 25.0887 37.8244 23.0009C38.7592 23.6147 39.8769 23.9721 41.0763 23.9721H44.2548V17.8406C44.2548 16.2484 43.6252 14.8005 42.6019 13.7328C44.6245 12.587 45.9924 10.4145 45.9924 7.92853ZM2.70236 5.35057C3.81225 6.17636 5.18683 6.66569 6.6735 6.66569H10.7442C9.3844 8.05077 8.46861 9.87319 8.22978 11.8998H6.6735C4.48382 11.8998 2.70236 10.1183 2.70236 7.92853V5.35057ZM4.9215 21.2775H4.43756V17.8406C4.43756 16.0506 5.89388 14.5943 7.68387 14.5943H8.16781V18.0312C8.16781 19.8212 6.71149 21.2775 4.9215 21.2775ZM10.8624 22.5116V12.9582C10.8624 9.48849 13.6852 6.66569 17.1548 6.66569H28.8432C31.9522 6.66569 34.5419 8.93225 35.0466 11.8998H30.7857C26.5673 11.8998 23.1353 15.3317 23.1353 19.5501V21.3939C23.1353 25.6123 26.5673 29.0443 30.7857 29.0443H33.5685C33.1239 30.2927 32.8386 31.5818 32.715 32.8988C31.4633 31.8322 29.9024 31.2104 28.2595 31.1341C27.2493 31.0867 26.2524 31.2419 25.3148 31.5912C23.9157 32.1163 22.3547 32.1162 20.9557 31.5913C20.0181 31.2419 19.0204 31.0864 18.0111 31.1341C16.3627 31.2107 14.797 31.8363 13.5433 32.9092C13.3596 31.1736 12.8724 29.4667 12.1078 27.9005C11.2929 26.232 10.8624 24.3685 10.8624 22.5116ZM35.1356 22.5689C35.1356 23.8607 34.9527 25.1265 34.5906 26.3497H30.7857C28.053 26.3497 25.8299 24.1265 25.8299 21.3939V19.5501C25.8299 16.8175 28.053 14.5943 30.7857 14.5943H35.1357L35.1356 22.5689ZM31.3333 41.8294C30.0538 43.2014 27.9718 43.6644 26.2273 42.989C24.2481 42.2311 22.0223 42.2312 20.043 42.989C18.2985 43.6642 16.2166 43.2015 14.9371 41.8294C14.0347 40.8848 13.571 39.6429 13.6313 38.3327C13.7422 35.9176 15.7209 33.9379 18.1361 33.8256C18.7828 33.7958 19.4179 33.8937 20.0148 34.1161C22.015 34.8669 24.2551 34.867 26.2553 34.116C26.8521 33.8937 27.4871 33.7956 28.134 33.8256C30.5491 33.9379 32.5279 35.9176 32.6388 38.3327C32.6993 39.6429 32.2355 40.8847 31.3333 41.8294ZM41.5603 21.2775H41.0763C39.2863 21.2775 37.83 19.8212 37.83 18.0312V14.5943H38.314C40.104 14.5943 41.5603 16.0506 41.5603 17.8406V21.2775ZM43.2978 7.92853C43.2978 10.1183 41.5164 11.8998 39.3267 11.8998H37.7682C37.5293 9.8731 36.6135 8.05077 35.2537 6.66569H39.3267C40.8134 6.66569 42.1878 6.17645 43.2978 5.35048V7.92853Z" fill="#7B8E98" stroke="white" stroke-width="0.8" mask="url(#path-1-inside-1_83_2138)"/>
</g>
<path id="Vector_2" d="M28.918 22.3387C28.918 21.5946 29.5212 20.9913 30.2652 20.9913C31.0093 20.9913 31.6125 21.5946 31.6125 22.3387C31.6125 23.0828 31.0093 23.6861 30.2652 23.6861C29.5212 23.6861 28.918 23.0828 28.918 22.3387Z" fill="#7B8E98"/>
<path id="Vector_3" d="M14.363 22.3387C14.363 21.5946 14.9662 20.9913 15.7103 20.9913C16.4544 20.9913 17.0576 21.5946 17.0576 22.3387C17.0576 23.0828 16.4544 23.6861 15.7103 23.6861C14.9662 23.6861 14.363 23.0828 14.363 22.3387Z" fill="#7B8E98"/>
<path id="Vector_4" d="M17.5286 38.2708C17.5286 37.5267 18.1318 36.9235 18.8758 36.9235C19.6199 36.9235 20.2231 37.5267 20.2231 38.2708C20.2231 39.0149 19.6199 39.6182 18.8758 39.6182C18.1318 39.6182 17.5286 39.0149 17.5286 38.2708Z" fill="#7B8E98"/>
<path id="Vector_5" d="M26.0471 38.2708C26.0471 37.5267 26.6503 36.9235 27.3944 36.9235C28.1385 36.9235 28.7417 37.5267 28.7417 38.2708C28.7417 39.0149 28.1385 39.6182 27.3944 39.6182C26.6503 39.6182 26.0471 39.0149 26.0471 38.2708Z" fill="#7B8E98"/>
</g>
</g>
<defs>
<clipPath id="clip0_83_2138">
<rect width="46" height="46" fill="white"/>
</clipPath>
</defs>
</svg>
