<svg width="46" height="46" viewBox="0 0 46 46" fill="none" xmlns="http://www.w3.org/2000/svg">
<g id="Icons / Catalog / ic-cat-chicken" clip-path="url(#clip0_83_2139)">
<g id="Group">
<g id="Union">
<path d="M18.9212 20.9529C18.9212 20.2084 18.3176 19.6047 17.5731 19.6047C16.8286 19.6047 16.2251 20.2084 16.2251 20.9529C16.2251 21.6974 16.8286 22.301 17.5731 22.301C18.3176 22.301 18.9212 21.6974 18.9212 20.9529Z" fill="#7B8E98"/>
<path d="M29.7721 20.9529C29.7721 20.2084 29.1686 19.6047 28.4241 19.6047C27.6796 19.6047 27.076 20.2084 27.076 20.9529C27.076 21.6974 27.6796 22.301 28.4241 22.301C29.1686 22.301 29.7721 21.6974 29.7721 20.9529Z" fill="#7B8E98"/>
</g>
<g id="Union_2">
<mask id="path-2-inside-1_83_2139" fill="white">
<path fill-rule="evenodd" clip-rule="evenodd" d="M28.3925 26.9224L24.7864 31.0364L27.9533 34.4278C29.4252 35.9191 29.4191 38.3296 27.9352 39.8135C26.6682 41.1297 24.4556 41.3021 22.9998 40.2133C21.5441 41.3021 19.3313 41.1297 18.0645 39.8135C16.5806 38.3296 16.5747 35.9188 18.0465 34.4275L21.2143 31.0375L17.6073 26.9224L22.9999 22.7991L28.3925 26.9224ZM24.4808 27.3251L22.9999 26.1929L21.5191 27.3251L22.9999 29.0382L24.4808 27.3251ZM24.4377 37.907C24.8565 38.3435 25.61 38.3435 26.0289 37.907C26.4676 37.4683 26.4676 36.7546 26.029 36.3158L25.997 36.2827L23.0009 33.0744L19.9709 36.3158C19.5323 36.7546 19.5323 37.4683 19.971 37.907C20.3899 38.3435 21.1433 38.3435 21.5622 37.907L22.9999 36.4692L24.4377 37.907Z"/>
<path fill-rule="evenodd" clip-rule="evenodd" d="M36.2396 31.1412C36.2396 33.6044 36.9618 35.9897 38.3282 38.0394C40.6011 41.3796 38.112 46.0337 34.0679 45.9996H11.9319C7.88915 46.034 5.39816 41.3803 7.67175 38.0393C9.03812 35.9897 9.76031 33.6043 9.76031 31.1411V20.3111C9.76031 16.2279 11.6184 12.5705 14.5333 10.1399C12.7925 7.08985 14.801 3.13058 18.2284 2.67422C20.3135 -0.891149 25.6855 -0.892318 27.7715 2.67422C31.198 3.13022 33.2079 7.08931 31.4666 10.1399C34.3816 12.5705 36.2396 16.2279 36.2396 20.3111V31.1412ZM19.0104 5.31853C17.6878 5.28797 16.5917 6.36506 16.5934 7.68694C16.5934 8.01532 16.6592 8.33202 16.7846 8.62319C20.4403 6.57382 25.5596 6.57373 29.2153 8.62319C29.9051 7.08491 28.6815 5.25427 26.9896 5.31853L26.0209 5.34963L25.6679 4.47834C24.7167 2.09439 21.2839 2.0934 20.332 4.47834L19.979 5.34963L19.0104 5.31853ZM11.9319 43.3036H34.068C35.9819 43.3198 37.1613 41.1166 36.0849 39.5348C34.4223 37.0408 33.5435 34.1383 33.5435 31.1411V20.3111C32.9679 6.33099 13.0372 6.32012 12.4564 20.3111V31.1411C12.4564 34.1383 11.5776 37.0408 9.91507 39.5348C8.8387 41.1162 10.0173 43.3197 11.9319 43.3036Z"/>
</mask>
<path fill-rule="evenodd" clip-rule="evenodd" d="M28.3925 26.9224L24.7864 31.0364L27.9533 34.4278C29.4252 35.9191 29.4191 38.3296 27.9352 39.8135C26.6682 41.1297 24.4556 41.3021 22.9998 40.2133C21.5441 41.3021 19.3313 41.1297 18.0645 39.8135C16.5806 38.3296 16.5747 35.9188 18.0465 34.4275L21.2143 31.0375L17.6073 26.9224L22.9999 22.7991L28.3925 26.9224ZM24.4808 27.3251L22.9999 26.1929L21.5191 27.3251L22.9999 29.0382L24.4808 27.3251ZM24.4377 37.907C24.8565 38.3435 25.61 38.3435 26.0289 37.907C26.4676 37.4683 26.4676 36.7546 26.029 36.3158L25.997 36.2827L23.0009 33.0744L19.9709 36.3158C19.5323 36.7546 19.5323 37.4683 19.971 37.907C20.3899 38.3435 21.1433 38.3435 21.5622 37.907L22.9999 36.4692L24.4377 37.907Z" fill="#7B8E98"/>
<path fill-rule="evenodd" clip-rule="evenodd" d="M36.2396 31.1412C36.2396 33.6044 36.9618 35.9897 38.3282 38.0394C40.6011 41.3796 38.112 46.0337 34.0679 45.9996H11.9319C7.88915 46.034 5.39816 41.3803 7.67175 38.0393C9.03812 35.9897 9.76031 33.6043 9.76031 31.1411V20.3111C9.76031 16.2279 11.6184 12.5705 14.5333 10.1399C12.7925 7.08985 14.801 3.13058 18.2284 2.67422C20.3135 -0.891149 25.6855 -0.892318 27.7715 2.67422C31.198 3.13022 33.2079 7.08931 31.4666 10.1399C34.3816 12.5705 36.2396 16.2279 36.2396 20.3111V31.1412ZM19.0104 5.31853C17.6878 5.28797 16.5917 6.36506 16.5934 7.68694C16.5934 8.01532 16.6592 8.33202 16.7846 8.62319C20.4403 6.57382 25.5596 6.57373 29.2153 8.62319C29.9051 7.08491 28.6815 5.25427 26.9896 5.31853L26.0209 5.34963L25.6679 4.47834C24.7167 2.09439 21.2839 2.0934 20.332 4.47834L19.979 5.34963L19.0104 5.31853ZM11.9319 43.3036H34.068C35.9819 43.3198 37.1613 41.1166 36.0849 39.5348C34.4223 37.0408 33.5435 34.1383 33.5435 31.1411V20.3111C32.9679 6.33099 13.0372 6.32012 12.4564 20.3111V31.1411C12.4564 34.1383 11.5776 37.0408 9.91507 39.5348C8.8387 41.1162 10.0173 43.3197 11.9319 43.3036Z" fill="#7B8E98"/>
<path fill-rule="evenodd" clip-rule="evenodd" d="M28.3925 26.9224L24.7864 31.0364L27.9533 34.4278C29.4252 35.9191 29.4191 38.3296 27.9352 39.8135C26.6682 41.1297 24.4556 41.3021 22.9998 40.2133C21.5441 41.3021 19.3313 41.1297 18.0645 39.8135C16.5806 38.3296 16.5747 35.9188 18.0465 34.4275L21.2143 31.0375L17.6073 26.9224L22.9999 22.7991L28.3925 26.9224ZM24.4808 27.3251L22.9999 26.1929L21.5191 27.3251L22.9999 29.0382L24.4808 27.3251ZM24.4377 37.907C24.8565 38.3435 25.61 38.3435 26.0289 37.907C26.4676 37.4683 26.4676 36.7546 26.029 36.3158L25.997 36.2827L23.0009 33.0744L19.9709 36.3158C19.5323 36.7546 19.5323 37.4683 19.971 37.907C20.3899 38.3435 21.1433 38.3435 21.5622 37.907L22.9999 36.4692L24.4377 37.907Z" stroke="white" stroke-width="0.8" mask="url(#path-2-inside-1_83_2139)"/>
<path fill-rule="evenodd" clip-rule="evenodd" d="M36.2396 31.1412C36.2396 33.6044 36.9618 35.9897 38.3282 38.0394C40.6011 41.3796 38.112 46.0337 34.0679 45.9996H11.9319C7.88915 46.034 5.39816 41.3803 7.67175 38.0393C9.03812 35.9897 9.76031 33.6043 9.76031 31.1411V20.3111C9.76031 16.2279 11.6184 12.5705 14.5333 10.1399C12.7925 7.08985 14.801 3.13058 18.2284 2.67422C20.3135 -0.891149 25.6855 -0.892318 27.7715 2.67422C31.198 3.13022 33.2079 7.08931 31.4666 10.1399C34.3816 12.5705 36.2396 16.2279 36.2396 20.3111V31.1412ZM19.0104 5.31853C17.6878 5.28797 16.5917 6.36506 16.5934 7.68694C16.5934 8.01532 16.6592 8.33202 16.7846 8.62319C20.4403 6.57382 25.5596 6.57373 29.2153 8.62319C29.9051 7.08491 28.6815 5.25427 26.9896 5.31853L26.0209 5.34963L25.6679 4.47834C24.7167 2.09439 21.2839 2.0934 20.332 4.47834L19.979 5.34963L19.0104 5.31853ZM11.9319 43.3036H34.068C35.9819 43.3198 37.1613 41.1166 36.0849 39.5348C34.4223 37.0408 33.5435 34.1383 33.5435 31.1411V20.3111C32.9679 6.33099 13.0372 6.32012 12.4564 20.3111V31.1411C12.4564 34.1383 11.5776 37.0408 9.91507 39.5348C8.8387 41.1162 10.0173 43.3197 11.9319 43.3036Z" stroke="white" stroke-width="0.8" mask="url(#path-2-inside-1_83_2139)"/>
</g>
</g>
</g>
<defs>
<clipPath id="clip0_83_2139">
<rect width="46" height="46" fill="white"/>
</clipPath>
</defs>
</svg>
