<svg width="46" height="46" viewBox="0 0 46 46" fill="none" xmlns="http://www.w3.org/2000/svg">
<g id="Icons / Catalog / ic-cat-horse">
<g id="Group">
<g id="Group_2">
<path id="Vector" d="M16.4753 25.7803C17.279 25.7803 17.9306 25.1288 17.9306 24.325C17.9306 23.5213 17.279 22.8698 16.4753 22.8698C15.6716 22.8698 15.02 23.5213 15.02 24.325C15.02 25.1288 15.6716 25.7803 16.4753 25.7803Z" fill="#7B8E98"/>
</g>
</g>
<g id="Group_3">
<g id="Group_4">
<path id="Vector_2" d="M29.5246 25.7803C30.3284 25.7803 30.9799 25.1288 30.9799 24.325C30.9799 23.5213 30.3284 22.8698 29.5246 22.8698C28.7209 22.8698 28.0693 23.5213 28.0693 24.325C28.0693 25.1288 28.7209 25.7803 29.5246 25.7803Z" fill="#7B8E98"/>
</g>
</g>
<g id="Group_5">
<g id="Group_6">
<g id="Union">
<path d="M19.5239 38.3297C19.5239 37.5847 20.1279 36.9807 20.8729 36.9807C21.6179 36.9807 22.2218 37.5847 22.2218 38.3297V38.7092C22.2218 39.4542 21.6179 40.0581 20.8729 40.0581C20.1279 40.0581 19.5239 39.4542 19.5239 38.7092V38.3297Z" fill="#7B8E98"/>
<path d="M23.7786 38.3297C23.7786 37.5847 24.3825 36.9807 25.1275 36.9807C25.8725 36.9807 26.4765 37.5847 26.4765 38.3297V38.7092C26.4765 39.4542 25.8725 40.0581 25.1275 40.0581C24.3825 40.0581 23.7786 39.4542 23.7786 38.7092V38.3297Z" fill="#7B8E98"/>
</g>
</g>
</g>
<g id="Group_7">
<g id="Group_8">
<g id="Vector_3">
<mask id="path-4-inside-1_83_2133" fill="white">
<path d="M38.3665 0.894572L37.9904 0L37.0228 0.0721444C36.8335 0.0862498 32.3598 0.45955 30.0329 4.11457C29.1272 5.53715 29.0083 7.37463 29.1249 8.88679C28.9752 8.82722 28.8242 8.76927 28.6699 8.71411C25.9861 7.75548 23.4772 7.79788 23.0001 7.81594C22.5233 7.79779 20.0139 7.7553 17.3302 8.71411C17.176 8.76927 17.0249 8.82722 16.8753 8.88679C16.9919 7.37463 16.8728 5.53715 15.9672 4.11457C13.6402 0.45955 9.16658 0.0862498 8.97728 0.0721444L8.00967 0L7.63358 0.894572C7.55057 1.09187 5.62423 5.76984 7.57617 9.43942C8.52986 11.2323 10.3997 12.4106 11.7026 13.0536C10.9441 14.2648 10.4324 15.665 10.1835 17.238C9.14889 23.7752 11.4301 29.3407 12.9397 33.0234C13.5317 34.4679 14.0432 35.7156 14.1077 36.4313C14.1289 36.6671 14.1469 36.9237 14.1658 37.1954C14.2768 38.7863 14.4287 40.965 15.5935 42.7611C16.9871 44.9103 19.479 45.9999 23 45.9999C26.521 45.9999 29.0129 44.9102 30.4065 42.7611C31.5712 40.965 31.7232 38.7863 31.8341 37.1954C31.8531 36.9237 31.871 36.6671 31.8923 36.4313C31.9569 35.7155 32.4682 34.4679 33.0604 33.0234C34.5699 29.3407 36.8512 23.7752 35.8165 17.238C35.5676 15.665 35.0559 14.2648 34.2975 13.0536C35.6004 12.4105 37.4702 11.2322 38.4239 9.43933C40.3758 5.76975 38.4495 1.09196 38.3665 0.894572ZM21.92 10.53C22.2208 10.5124 22.4662 10.5078 22.639 10.5078C22.8175 10.5078 22.9186 10.5127 22.9227 10.513L23.0001 10.5174L23.0774 10.513C23.092 10.512 24.0468 10.4623 25.374 10.663C25.9071 11.6463 25.7742 14.8083 24.6216 16.8644C23.9256 18.1057 23.6767 19.267 23.625 20.2046C23.3831 20.1097 23.1291 19.9943 22.8738 19.8542C21.3286 19.0062 20.4804 17.6496 20.353 15.8219C20.1017 12.2202 21.3942 10.9097 21.92 10.53ZM9.95802 8.17235C9.04826 6.46227 9.43603 4.23244 9.78731 2.95603C10.8974 3.24533 12.6591 3.94216 13.6913 5.56338C14.5457 6.90547 14.1628 9.43654 13.8701 10.6166C13.7483 10.7149 13.6288 10.815 13.5125 10.918C12.4839 10.4908 10.674 9.51821 9.95802 8.17235ZM29.2052 36.1888C29.1815 36.4521 29.1626 36.7219 29.1427 37.0076C28.927 40.1021 28.7038 43.302 23 43.302C17.2962 43.302 17.073 40.1022 16.8573 37.0076C16.8373 36.7219 16.8186 36.4521 16.7948 36.1889C16.7857 36.088 16.7717 35.9844 16.7554 35.8796C17.2912 35.5916 18.5379 35.0014 20.2778 34.6733C23.251 34.1129 26.2635 34.5316 29.2389 35.916C29.2252 36.0084 29.2134 36.0997 29.2052 36.1888ZM30.564 32.0001C30.3739 32.4638 30.1953 32.9005 30.0328 33.3139C25.7708 31.4307 22.0588 31.5708 19.6368 32.0496C18.0134 32.3705 16.7469 32.8798 15.948 33.2647C15.7908 32.8659 15.6185 32.4454 15.4361 32.0001C13.9572 28.3922 11.9319 23.4509 12.8483 17.6597C13.3428 14.5347 15.1315 12.3886 18.1647 11.2811C18.1841 11.274 18.2034 11.2675 18.2228 11.2605C17.7231 12.5892 17.534 14.1784 17.6617 16.0097C17.9053 19.5002 19.9247 21.3132 21.576 22.2193C23.2662 23.1469 24.8632 23.301 25.0398 23.3156L27.2266 23.532L26.4205 21.5161C26.375 21.3696 25.9787 19.9605 26.9749 18.1837C28.0018 16.3523 28.5591 13.6525 28.3216 11.472C31.0602 12.6258 32.6841 14.7049 33.1519 17.6598C34.0683 23.4509 32.0429 28.3921 30.564 32.0001ZM36.0419 8.17235C35.3255 9.51893 33.5142 10.4918 32.4875 10.9181C32.3711 10.815 32.2514 10.7147 32.1295 10.6164C31.8477 9.47392 31.4557 6.90313 32.3086 5.56338C33.343 3.93856 35.1 3.24335 36.2091 2.95531C36.5586 4.23523 36.946 6.47305 36.0419 8.17235Z"/>
</mask>
<path d="M38.3665 0.894572L37.9904 0L37.0228 0.0721444C36.8335 0.0862498 32.3598 0.45955 30.0329 4.11457C29.1272 5.53715 29.0083 7.37463 29.1249 8.88679C28.9752 8.82722 28.8242 8.76927 28.6699 8.71411C25.9861 7.75548 23.4772 7.79788 23.0001 7.81594C22.5233 7.79779 20.0139 7.7553 17.3302 8.71411C17.176 8.76927 17.0249 8.82722 16.8753 8.88679C16.9919 7.37463 16.8728 5.53715 15.9672 4.11457C13.6402 0.45955 9.16658 0.0862498 8.97728 0.0721444L8.00967 0L7.63358 0.894572C7.55057 1.09187 5.62423 5.76984 7.57617 9.43942C8.52986 11.2323 10.3997 12.4106 11.7026 13.0536C10.9441 14.2648 10.4324 15.665 10.1835 17.238C9.14889 23.7752 11.4301 29.3407 12.9397 33.0234C13.5317 34.4679 14.0432 35.7156 14.1077 36.4313C14.1289 36.6671 14.1469 36.9237 14.1658 37.1954C14.2768 38.7863 14.4287 40.965 15.5935 42.7611C16.9871 44.9103 19.479 45.9999 23 45.9999C26.521 45.9999 29.0129 44.9102 30.4065 42.7611C31.5712 40.965 31.7232 38.7863 31.8341 37.1954C31.8531 36.9237 31.871 36.6671 31.8923 36.4313C31.9569 35.7155 32.4682 34.4679 33.0604 33.0234C34.5699 29.3407 36.8512 23.7752 35.8165 17.238C35.5676 15.665 35.0559 14.2648 34.2975 13.0536C35.6004 12.4105 37.4702 11.2322 38.4239 9.43933C40.3758 5.76975 38.4495 1.09196 38.3665 0.894572ZM21.92 10.53C22.2208 10.5124 22.4662 10.5078 22.639 10.5078C22.8175 10.5078 22.9186 10.5127 22.9227 10.513L23.0001 10.5174L23.0774 10.513C23.092 10.512 24.0468 10.4623 25.374 10.663C25.9071 11.6463 25.7742 14.8083 24.6216 16.8644C23.9256 18.1057 23.6767 19.267 23.625 20.2046C23.3831 20.1097 23.1291 19.9943 22.8738 19.8542C21.3286 19.0062 20.4804 17.6496 20.353 15.8219C20.1017 12.2202 21.3942 10.9097 21.92 10.53ZM9.95802 8.17235C9.04826 6.46227 9.43603 4.23244 9.78731 2.95603C10.8974 3.24533 12.6591 3.94216 13.6913 5.56338C14.5457 6.90547 14.1628 9.43654 13.8701 10.6166C13.7483 10.7149 13.6288 10.815 13.5125 10.918C12.4839 10.4908 10.674 9.51821 9.95802 8.17235ZM29.2052 36.1888C29.1815 36.4521 29.1626 36.7219 29.1427 37.0076C28.927 40.1021 28.7038 43.302 23 43.302C17.2962 43.302 17.073 40.1022 16.8573 37.0076C16.8373 36.7219 16.8186 36.4521 16.7948 36.1889C16.7857 36.088 16.7717 35.9844 16.7554 35.8796C17.2912 35.5916 18.5379 35.0014 20.2778 34.6733C23.251 34.1129 26.2635 34.5316 29.2389 35.916C29.2252 36.0084 29.2134 36.0997 29.2052 36.1888ZM30.564 32.0001C30.3739 32.4638 30.1953 32.9005 30.0328 33.3139C25.7708 31.4307 22.0588 31.5708 19.6368 32.0496C18.0134 32.3705 16.7469 32.8798 15.948 33.2647C15.7908 32.8659 15.6185 32.4454 15.4361 32.0001C13.9572 28.3922 11.9319 23.4509 12.8483 17.6597C13.3428 14.5347 15.1315 12.3886 18.1647 11.2811C18.1841 11.274 18.2034 11.2675 18.2228 11.2605C17.7231 12.5892 17.534 14.1784 17.6617 16.0097C17.9053 19.5002 19.9247 21.3132 21.576 22.2193C23.2662 23.1469 24.8632 23.301 25.0398 23.3156L27.2266 23.532L26.4205 21.5161C26.375 21.3696 25.9787 19.9605 26.9749 18.1837C28.0018 16.3523 28.5591 13.6525 28.3216 11.472C31.0602 12.6258 32.6841 14.7049 33.1519 17.6598C34.0683 23.4509 32.0429 28.3921 30.564 32.0001ZM36.0419 8.17235C35.3255 9.51893 33.5142 10.4918 32.4875 10.9181C32.3711 10.815 32.2514 10.7147 32.1295 10.6164C31.8477 9.47392 31.4557 6.90313 32.3086 5.56338C33.343 3.93856 35.1 3.24335 36.2091 2.95531C36.5586 4.23523 36.946 6.47305 36.0419 8.17235Z" fill="#7B8E98" stroke="white" stroke-width="0.8" mask="url(#path-4-inside-1_83_2133)"/>
</g>
</g>
</g>
</g>
</svg>
