<svg width="46" height="46" viewBox="0 0 46 46" fill="none" xmlns="http://www.w3.org/2000/svg">
<g id="Icons / Catalog / ic-cat-goat">
<g id="Group">
<g id="Vector">
<mask id="path-1-inside-1_83_2137" fill="white">
<path d="M35.1012 14.8824C34.7345 14.3175 34.3053 13.797 33.8235 13.3303V10.1471C33.8235 8.28199 35.3408 6.76471 37.2059 6.76471C39.071 6.76471 40.5882 8.28199 40.5882 10.1471V10.8235C40.5882 11.5707 41.194 12.1765 41.9412 12.1765C42.6884 12.1765 43.2941 11.5707 43.2941 10.8235C43.2941 10.3482 43.2941 9.87483 43.2941 9.47059C43.2941 4.24851 39.0456 0 33.8235 0C28.6014 0 24.3529 4.24851 24.3529 9.47059V10.8235H21.6471V9.47059C21.6471 4.24851 17.3986 0 12.1765 0C6.95439 0 2.70588 4.24851 2.70588 9.47059V10.8235C2.70588 11.5707 3.31161 12.1765 4.05882 12.1765C4.80603 12.1765 5.41176 11.5707 5.41176 10.8235V10.1471C5.41176 8.28199 6.92904 6.76471 8.79412 6.76471C10.6592 6.76471 12.1765 8.28199 12.1765 10.1471V13.3303C11.6947 13.797 11.2656 14.3176 10.8988 14.8824H0V16.2353C0 19.9654 3.03465 23 6.76471 23H8.74253C8.02198 24.2423 6.82232 25.1738 5.39791 25.5381C4.674 25.7232 4.05882 26.3116 4.05882 27.0588C4.05882 27.806 4.6679 28.3993 5.40745 28.5059C7.84882 28.858 9.94127 30.2218 10.3688 33.0006L11.2322 38.613C11.8864 42.8653 15.5479 46 19.8425 46H26.1575C30.4597 46 34.1147 42.8577 34.7677 38.6131L35.6311 33.0007C36.0587 30.2219 38.1512 28.8581 40.5925 28.506C41.3321 28.3994 41.9412 27.8061 41.9412 27.0589C41.9412 26.3117 41.326 25.7233 40.6021 25.5382C39.1777 25.1739 37.978 24.2424 37.2575 23.0001H39.2353C42.9654 23.0001 46 19.9654 46 16.2354V14.8824L35.1012 14.8824ZM27.0588 9.47059C27.0588 5.74053 30.0935 2.70588 33.8235 2.70588C35.3694 2.70588 36.7947 3.22821 37.9351 4.10401C37.6958 4.07533 37.4528 4.05882 37.2059 4.05882C33.8488 4.05882 31.1176 6.78996 31.1176 10.1471V11.5306C30.0504 11.0756 28.8766 10.8235 27.6451 10.8235H27.0588V9.47059ZM8.79412 4.05882C8.54716 4.05882 8.30417 4.07533 8.06488 4.10401C9.20532 3.22821 10.6307 2.70588 12.1765 2.70588C15.9065 2.70588 18.9412 5.74053 18.9412 9.47059V10.8235H18.3549C17.1234 10.8235 15.9496 11.0756 14.8824 11.5306V10.1471C14.8824 6.78996 12.1512 4.05882 8.79412 4.05882ZM6.76471 20.2941C5.00083 20.2941 3.49609 19.1631 2.93769 17.5882H9.72674C9.55979 18.2678 9.47059 18.9775 9.47059 19.7078V20.2941H6.76471ZM23.0008 35.9803C22.4965 35.5154 22.0011 35.1203 21.5006 34.7828C21.1688 34.5591 20.9706 34.1865 20.9706 33.786V33.598C20.9706 32.9763 21.4763 32.4706 22.098 32.4706H23.902C24.5237 32.4706 25.0294 32.9763 25.0294 33.598V33.786C25.0294 34.1864 24.8313 34.5591 24.4994 34.7828C23.9232 35.1712 23.4106 35.6032 23.0008 35.9803ZM35.6944 27.6625C34.2236 28.9243 33.2514 30.674 32.9567 32.5892L32.0933 38.2016C31.6393 41.1524 29.1429 43.2941 26.1574 43.2941H24.3529V38.4347C24.7305 38.0541 25.3201 37.493 26.012 37.0265C27.0911 36.299 27.7353 35.0876 27.7353 33.786V33.598C27.7353 31.4843 26.0157 29.7647 23.902 29.7647H22.098C19.9843 29.7647 18.2647 31.4843 18.2647 33.598V33.786C18.2647 35.0876 18.909 36.299 19.988 37.0264C20.5259 37.3891 21.0695 37.8512 21.6471 38.4352V43.2941H19.8425C16.857 43.2941 14.3607 41.1524 13.9066 38.2016L13.0432 32.5892C12.7485 30.674 11.7764 28.9243 10.3055 27.6625C9.89451 27.3099 9.45093 27.0034 8.98407 26.7421C10.9233 25.2573 12.1765 22.9195 12.1765 20.2941V19.7078C12.1765 16.301 14.9481 13.5294 18.3549 13.5294H27.6451C31.052 13.5294 33.8235 16.301 33.8235 19.7078V20.2941C33.8235 22.9195 35.0767 25.2573 37.0159 26.7421C36.549 27.0034 36.1054 27.3099 35.6944 27.6625ZM39.2353 20.2941H36.5294V19.7078C36.5294 18.9775 36.4402 18.2678 36.2733 17.5882H43.0623C42.5039 19.1631 40.9993 20.2941 39.2353 20.2941Z"/>
</mask>
<path d="M35.1012 14.8824C34.7345 14.3175 34.3053 13.797 33.8235 13.3303V10.1471C33.8235 8.28199 35.3408 6.76471 37.2059 6.76471C39.071 6.76471 40.5882 8.28199 40.5882 10.1471V10.8235C40.5882 11.5707 41.194 12.1765 41.9412 12.1765C42.6884 12.1765 43.2941 11.5707 43.2941 10.8235C43.2941 10.3482 43.2941 9.87483 43.2941 9.47059C43.2941 4.24851 39.0456 0 33.8235 0C28.6014 0 24.3529 4.24851 24.3529 9.47059V10.8235H21.6471V9.47059C21.6471 4.24851 17.3986 0 12.1765 0C6.95439 0 2.70588 4.24851 2.70588 9.47059V10.8235C2.70588 11.5707 3.31161 12.1765 4.05882 12.1765C4.80603 12.1765 5.41176 11.5707 5.41176 10.8235V10.1471C5.41176 8.28199 6.92904 6.76471 8.79412 6.76471C10.6592 6.76471 12.1765 8.28199 12.1765 10.1471V13.3303C11.6947 13.797 11.2656 14.3176 10.8988 14.8824H0V16.2353C0 19.9654 3.03465 23 6.76471 23H8.74253C8.02198 24.2423 6.82232 25.1738 5.39791 25.5381C4.674 25.7232 4.05882 26.3116 4.05882 27.0588C4.05882 27.806 4.6679 28.3993 5.40745 28.5059C7.84882 28.858 9.94127 30.2218 10.3688 33.0006L11.2322 38.613C11.8864 42.8653 15.5479 46 19.8425 46H26.1575C30.4597 46 34.1147 42.8577 34.7677 38.6131L35.6311 33.0007C36.0587 30.2219 38.1512 28.8581 40.5925 28.506C41.3321 28.3994 41.9412 27.8061 41.9412 27.0589C41.9412 26.3117 41.326 25.7233 40.6021 25.5382C39.1777 25.1739 37.978 24.2424 37.2575 23.0001H39.2353C42.9654 23.0001 46 19.9654 46 16.2354V14.8824L35.1012 14.8824ZM27.0588 9.47059C27.0588 5.74053 30.0935 2.70588 33.8235 2.70588C35.3694 2.70588 36.7947 3.22821 37.9351 4.10401C37.6958 4.07533 37.4528 4.05882 37.2059 4.05882C33.8488 4.05882 31.1176 6.78996 31.1176 10.1471V11.5306C30.0504 11.0756 28.8766 10.8235 27.6451 10.8235H27.0588V9.47059ZM8.79412 4.05882C8.54716 4.05882 8.30417 4.07533 8.06488 4.10401C9.20532 3.22821 10.6307 2.70588 12.1765 2.70588C15.9065 2.70588 18.9412 5.74053 18.9412 9.47059V10.8235H18.3549C17.1234 10.8235 15.9496 11.0756 14.8824 11.5306V10.1471C14.8824 6.78996 12.1512 4.05882 8.79412 4.05882ZM6.76471 20.2941C5.00083 20.2941 3.49609 19.1631 2.93769 17.5882H9.72674C9.55979 18.2678 9.47059 18.9775 9.47059 19.7078V20.2941H6.76471ZM23.0008 35.9803C22.4965 35.5154 22.0011 35.1203 21.5006 34.7828C21.1688 34.5591 20.9706 34.1865 20.9706 33.786V33.598C20.9706 32.9763 21.4763 32.4706 22.098 32.4706H23.902C24.5237 32.4706 25.0294 32.9763 25.0294 33.598V33.786C25.0294 34.1864 24.8313 34.5591 24.4994 34.7828C23.9232 35.1712 23.4106 35.6032 23.0008 35.9803ZM35.6944 27.6625C34.2236 28.9243 33.2514 30.674 32.9567 32.5892L32.0933 38.2016C31.6393 41.1524 29.1429 43.2941 26.1574 43.2941H24.3529V38.4347C24.7305 38.0541 25.3201 37.493 26.012 37.0265C27.0911 36.299 27.7353 35.0876 27.7353 33.786V33.598C27.7353 31.4843 26.0157 29.7647 23.902 29.7647H22.098C19.9843 29.7647 18.2647 31.4843 18.2647 33.598V33.786C18.2647 35.0876 18.909 36.299 19.988 37.0264C20.5259 37.3891 21.0695 37.8512 21.6471 38.4352V43.2941H19.8425C16.857 43.2941 14.3607 41.1524 13.9066 38.2016L13.0432 32.5892C12.7485 30.674 11.7764 28.9243 10.3055 27.6625C9.89451 27.3099 9.45093 27.0034 8.98407 26.7421C10.9233 25.2573 12.1765 22.9195 12.1765 20.2941V19.7078C12.1765 16.301 14.9481 13.5294 18.3549 13.5294H27.6451C31.052 13.5294 33.8235 16.301 33.8235 19.7078V20.2941C33.8235 22.9195 35.0767 25.2573 37.0159 26.7421C36.549 27.0034 36.1054 27.3099 35.6944 27.6625ZM39.2353 20.2941H36.5294V19.7078C36.5294 18.9775 36.4402 18.2678 36.2733 17.5882H43.0623C42.5039 19.1631 40.9993 20.2941 39.2353 20.2941Z" fill="#7B8E98" stroke="white" mask="url(#path-1-inside-1_83_2137)"/>
</g>
<g id="Union">
<path d="M18.9412 24.3529C18.9412 23.6057 18.3355 23 17.5883 23C16.8411 23 16.2354 23.6057 16.2354 24.3529C16.2354 25.1001 16.8411 25.7059 17.5883 25.7059C18.3355 25.7059 18.9412 25.1001 18.9412 24.3529Z" fill="#7B8E98"/>
<path d="M29.7648 24.3529C29.7648 23.6057 29.159 23 28.4118 23C27.6646 23 27.0589 23.6057 27.0589 24.3529C27.0589 25.1001 27.6646 25.7059 28.4118 25.7059C29.159 25.7059 29.7648 25.1001 29.7648 24.3529Z" fill="#7B8E98"/>
</g>
</g>
</g>
</svg>
