<svg width="46" height="46" viewBox="0 0 46 46" fill="none" xmlns="http://www.w3.org/2000/svg">
<g id="Icons / Catalog / ic-cat-turkey">
<g id="Group">
<g id="Vector">
<mask id="path-1-inside-1_83_2140" fill="white">
<path d="M37.7644 26.3541C37.7644 24.8467 37.4044 23.3574 36.7204 22.0235V13.6765C36.7204 12.5103 36.2114 11.4021 35.3267 10.6422L34.8996 10.2753C33.9793 4.38024 28.9022 0 22.8738 0C19.8118 0 16.8854 1.1412 14.6335 3.21326C12.5347 5.14463 11.1908 7.7245 10.8114 10.5279L10.6802 10.6401C9.79156 11.4 9.27991 12.5108 9.27991 13.6801V22.0236C8.59584 23.3574 8.23584 24.8467 8.23584 26.3541C8.23584 31.5889 12.4945 35.8477 17.7293 35.8477H18.2544L19.4308 38.8974C19.877 40.054 20.9885 40.8171 22.2282 40.8177L24.5275 40.819C24.5275 43.6758 26.8516 46 29.7085 46C32.5653 46 34.8894 43.6758 34.8894 40.819V33.1531C36.6617 31.4274 37.7644 29.0173 37.7644 26.3541ZM29.7085 43.3047C28.3378 43.3047 27.2228 42.1896 27.2228 40.819V37.1553L29.6141 31.177C30.0437 30.1031 29.8176 28.8779 29.0331 28.028L27.2228 26.0668V25.1954H27.6813C30.1696 25.1954 32.1941 27.2199 32.1941 29.7083V40.819C32.1941 42.1896 31.0791 43.3047 29.7085 43.3047ZM23.0001 37.944C22.3936 37.944 21.8481 37.5747 21.6229 37.0115L19.5204 31.7554C19.0908 30.6814 19.3168 29.4562 20.1014 28.6063L21.4728 27.1207V24.7729C21.4728 24.01 22.1579 23.3893 23.0001 23.3893C23.8423 23.3893 24.5275 24.01 24.5275 24.7729V27.1207L25.8989 28.6063C26.6834 29.4562 26.9095 30.6814 26.4799 31.7554L24.3774 37.0115C24.1521 37.5747 23.6067 37.944 23.0001 37.944ZM27.6813 22.5001H26.5048C25.7458 21.4116 24.4581 20.694 23.0001 20.694C20.6717 20.694 18.7775 22.5237 18.7775 24.7729V26.0668L16.9672 28.028C16.1826 28.8779 15.9566 30.1031 16.3862 31.177L17.1662 33.1271C13.6804 32.8397 10.9312 29.9128 10.9312 26.354C10.9312 24.1828 11.9752 22.7157 11.9752 22.7157V14.9215C11.9752 13.7523 12.4963 12.6334 13.385 11.8735L13.4335 11.3256C13.6414 8.97701 14.7158 6.80036 16.4585 5.19665C18.2115 3.5836 20.4898 2.69531 22.8738 2.69531C27.7096 2.69531 31.7589 6.31386 32.2929 11.1123L32.3515 11.6398L32.6314 11.8802C33.5161 12.6401 34.025 13.7483 34.025 14.9145V22.7158C34.025 22.7158 35.0691 24.1381 35.0691 26.3541C35.0691 27.0565 34.962 27.7345 34.7633 28.3724C34.1348 25.0342 31.1993 22.5001 27.6813 22.5001Z"/>
</mask>
<path d="M37.7644 26.3541C37.7644 24.8467 37.4044 23.3574 36.7204 22.0235V13.6765C36.7204 12.5103 36.2114 11.4021 35.3267 10.6422L34.8996 10.2753C33.9793 4.38024 28.9022 0 22.8738 0C19.8118 0 16.8854 1.1412 14.6335 3.21326C12.5347 5.14463 11.1908 7.7245 10.8114 10.5279L10.6802 10.6401C9.79156 11.4 9.27991 12.5108 9.27991 13.6801V22.0236C8.59584 23.3574 8.23584 24.8467 8.23584 26.3541C8.23584 31.5889 12.4945 35.8477 17.7293 35.8477H18.2544L19.4308 38.8974C19.877 40.054 20.9885 40.8171 22.2282 40.8177L24.5275 40.819C24.5275 43.6758 26.8516 46 29.7085 46C32.5653 46 34.8894 43.6758 34.8894 40.819V33.1531C36.6617 31.4274 37.7644 29.0173 37.7644 26.3541ZM29.7085 43.3047C28.3378 43.3047 27.2228 42.1896 27.2228 40.819V37.1553L29.6141 31.177C30.0437 30.1031 29.8176 28.8779 29.0331 28.028L27.2228 26.0668V25.1954H27.6813C30.1696 25.1954 32.1941 27.2199 32.1941 29.7083V40.819C32.1941 42.1896 31.0791 43.3047 29.7085 43.3047ZM23.0001 37.944C22.3936 37.944 21.8481 37.5747 21.6229 37.0115L19.5204 31.7554C19.0908 30.6814 19.3168 29.4562 20.1014 28.6063L21.4728 27.1207V24.7729C21.4728 24.01 22.1579 23.3893 23.0001 23.3893C23.8423 23.3893 24.5275 24.01 24.5275 24.7729V27.1207L25.8989 28.6063C26.6834 29.4562 26.9095 30.6814 26.4799 31.7554L24.3774 37.0115C24.1521 37.5747 23.6067 37.944 23.0001 37.944ZM27.6813 22.5001H26.5048C25.7458 21.4116 24.4581 20.694 23.0001 20.694C20.6717 20.694 18.7775 22.5237 18.7775 24.7729V26.0668L16.9672 28.028C16.1826 28.8779 15.9566 30.1031 16.3862 31.177L17.1662 33.1271C13.6804 32.8397 10.9312 29.9128 10.9312 26.354C10.9312 24.1828 11.9752 22.7157 11.9752 22.7157V14.9215C11.9752 13.7523 12.4963 12.6334 13.385 11.8735L13.4335 11.3256C13.6414 8.97701 14.7158 6.80036 16.4585 5.19665C18.2115 3.5836 20.4898 2.69531 22.8738 2.69531C27.7096 2.69531 31.7589 6.31386 32.2929 11.1123L32.3515 11.6398L32.6314 11.8802C33.5161 12.6401 34.025 13.7483 34.025 14.9145V22.7158C34.025 22.7158 35.0691 24.1381 35.0691 26.3541C35.0691 27.0565 34.962 27.7345 34.7633 28.3724C34.1348 25.0342 31.1993 22.5001 27.6813 22.5001Z" fill="#7B8E98" stroke="white" stroke-width="0.6" mask="url(#path-1-inside-1_83_2140)"/>
</g>
<g id="Union">
<path d="M18.7059 17.3529C18.7059 16.6057 18.1001 16 17.3529 16C16.6057 16 16 16.6057 16 17.3529C16 18.1001 16.6057 18.7059 17.3529 18.7059C18.1001 18.7059 18.7059 18.1001 18.7059 17.3529Z" fill="#7B8E98"/>
<path d="M29.5294 17.3529C29.5294 16.6057 28.9237 16 28.1765 16C27.4293 16 26.8235 16.6057 26.8235 17.3529C26.8235 18.1001 27.4293 18.7059 28.1765 18.7059C28.9237 18.7059 29.5294 18.1001 29.5294 17.3529Z" fill="#7B8E98"/>
</g>
</g>
</g>
</svg>
