<svg width="46" height="46" viewBox="0 0 46 46" fill="none" xmlns="http://www.w3.org/2000/svg">
<g id="Icons / Catalog / ic-cat-goose" clip-path="url(#clip0_83_2132)">
<g id="Group">
<g id="Group_2">
<g id="Vector">
<mask id="path-1-inside-1_83_2132" fill="white">
<path d="M43.6462 26.8683C43.3433 24.5789 42.4004 22.1581 40.8431 19.6731C38.28 15.5834 36.8641 12.1742 35.7261 9.43482C34.497 6.47552 33.5262 4.07389 31.7288 2.47686C29.8289 0.788242 27.2209 0 23.0085 0H22.998C22.9927 0 22.9875 0 22.9822 0C18.7741 0 16.168 0.788716 14.2685 2.47631C12.4716 4.07335 11.5004 6.44282 10.2713 9.40219C9.13329 12.1416 7.71737 15.5672 5.1543 19.6568C3.59701 22.1418 2.65404 24.5706 2.35116 26.86C2.07663 28.9354 2.32144 30.9272 3.07855 32.7725C5.31052 38.2115 11.3543 40.9662 14.2973 41.6859C14.6101 41.8196 16.3491 42.6534 16.3491 44.8973V45.9999H29.7657V44.8978C29.7657 42.6534 31.4457 41.822 31.7586 41.6884C34.7017 40.9687 40.7003 38.2159 42.9318 32.7768C43.6893 30.9312 43.9208 28.9435 43.6462 26.8683ZM40.8737 31.9379C39.1008 36.2585 34.0826 38.8613 31.1423 39.5566L31.0824 39.5705L31.0245 39.591C30.9311 39.6245 30.0848 39.847 29.2429 40.6405C28.5989 41.2481 27.8548 42.1667 27.5956 43.6041H18.4018C18.1425 42.1667 17.3984 41.2482 16.7544 40.6409C15.913 39.8474 15.0668 39.5777 14.9729 39.5442L14.9149 39.5471L14.855 39.5446C11.9148 38.8494 6.89698 36.2527 5.12404 31.9317C3.79868 28.7021 4.43932 24.9737 7.02776 20.8437C9.68859 16.5983 11.1438 13.0961 12.313 10.281C13.4774 7.47737 14.3188 5.4812 15.7372 4.22096C17.1972 2.92287 19.3663 2.39579 22.9907 2.39579H23.008C26.6314 2.39579 28.8007 2.92382 30.2606 4.22143C31.679 5.4816 32.5203 7.49318 33.6848 10.2968C34.8539 13.1119 36.3092 16.6084 38.97 20.8543C41.5585 24.9842 42.1986 28.7083 40.8737 31.9379Z"/>
</mask>
<path d="M43.6462 26.8683C43.3433 24.5789 42.4004 22.1581 40.8431 19.6731C38.28 15.5834 36.8641 12.1742 35.7261 9.43482C34.497 6.47552 33.5262 4.07389 31.7288 2.47686C29.8289 0.788242 27.2209 0 23.0085 0H22.998C22.9927 0 22.9875 0 22.9822 0C18.7741 0 16.168 0.788716 14.2685 2.47631C12.4716 4.07335 11.5004 6.44282 10.2713 9.40219C9.13329 12.1416 7.71737 15.5672 5.1543 19.6568C3.59701 22.1418 2.65404 24.5706 2.35116 26.86C2.07663 28.9354 2.32144 30.9272 3.07855 32.7725C5.31052 38.2115 11.3543 40.9662 14.2973 41.6859C14.6101 41.8196 16.3491 42.6534 16.3491 44.8973V45.9999H29.7657V44.8978C29.7657 42.6534 31.4457 41.822 31.7586 41.6884C34.7017 40.9687 40.7003 38.2159 42.9318 32.7768C43.6893 30.9312 43.9208 28.9435 43.6462 26.8683ZM40.8737 31.9379C39.1008 36.2585 34.0826 38.8613 31.1423 39.5566L31.0824 39.5705L31.0245 39.591C30.9311 39.6245 30.0848 39.847 29.2429 40.6405C28.5989 41.2481 27.8548 42.1667 27.5956 43.6041H18.4018C18.1425 42.1667 17.3984 41.2482 16.7544 40.6409C15.913 39.8474 15.0668 39.5777 14.9729 39.5442L14.9149 39.5471L14.855 39.5446C11.9148 38.8494 6.89698 36.2527 5.12404 31.9317C3.79868 28.7021 4.43932 24.9737 7.02776 20.8437C9.68859 16.5983 11.1438 13.0961 12.313 10.281C13.4774 7.47737 14.3188 5.4812 15.7372 4.22096C17.1972 2.92287 19.3663 2.39579 22.9907 2.39579H23.008C26.6314 2.39579 28.8007 2.92382 30.2606 4.22143C31.679 5.4816 32.5203 7.49318 33.6848 10.2968C34.8539 13.1119 36.3092 16.6084 38.97 20.8543C41.5585 24.9842 42.1986 28.7083 40.8737 31.9379Z" fill="#7B8E98" stroke="white" stroke-width="0.2" mask="url(#path-1-inside-1_83_2132)"/>
</g>
<g id="Union">
<path d="M18.7059 18.3529C18.7059 17.6057 18.1001 17 17.3529 17C16.6057 17 16 17.6057 16 18.3529C16 19.1001 16.6057 19.7059 17.3529 19.7059C18.1001 19.7059 18.7059 19.1001 18.7059 18.3529Z" fill="#7B8E98"/>
<path d="M29.5294 18.3529C29.5294 17.6057 28.9237 17 28.1765 17C27.4293 17 26.8235 17.6057 26.8235 18.3529C26.8235 19.1001 27.4293 19.7059 28.1765 19.7059C28.9237 19.7059 29.5294 19.1001 29.5294 18.3529Z" fill="#7B8E98"/>
</g>
<g id="Vector_2">
<mask id="path-3-inside-2_83_2132" fill="white">
<path d="M35.4543 24.9602C35.1022 24.9602 34.7759 24.9919 34.5804 25.0105L34.5617 25.0125C34.212 25.046 33.8895 25.0623 33.5761 25.0623C32.6475 25.0623 31.7917 24.918 30.7145 24.5802C30.1519 24.4035 29.5774 24.2046 29.0216 24.0119C28.2496 23.7446 27.4509 23.468 26.6382 23.2338C25.503 22.907 24.55 22.7206 23.6395 22.6477C23.4364 22.6314 23.2189 22.6247 22.9989 22.628C22.779 22.6247 22.5614 22.6314 22.3583 22.6477C21.4474 22.7206 20.4948 22.907 19.3596 23.2338C18.5465 23.4676 17.7482 23.744 16.9763 24.0119C16.4209 24.2046 15.8464 24.4034 15.2838 24.5802C14.2067 24.918 13.3509 25.0623 12.4222 25.0623C12.1088 25.0623 11.7863 25.046 11.4366 25.0125L11.4179 25.0105C11.2229 24.9919 10.8961 24.9602 10.5439 24.9602C10.1711 24.9602 9.03747 24.9602 8.48739 25.7945C8.31102 26.0618 8.06573 26.6283 8.40308 27.4155C8.84054 28.4361 9.58897 29.1204 10.2613 29.5593C10.0169 29.911 9.80034 30.2719 9.62634 30.6202C9.09642 31.6796 8.97947 32.5685 9.27849 33.2628C9.58564 33.9752 10.2828 34.384 11.1922 34.384C11.5876 34.384 12.0356 34.3121 12.5506 34.1655C12.5502 34.372 12.5703 34.58 12.6173 34.7864C12.7868 35.5344 13.2622 36.1329 13.9915 36.5173C14.4472 36.7574 14.9355 36.879 15.4424 36.879C16.2809 36.879 17.0486 36.5637 17.938 36.1987C19.1622 35.696 20.6859 35.0697 22.9994 35.0697C25.3128 35.0697 26.8365 35.6955 28.0613 36.1987C28.9506 36.5637 29.7182 36.879 30.5563 36.879H30.5567C31.0637 36.879 31.5515 36.7574 32.0072 36.5173C32.7365 36.1329 33.2114 35.5345 33.3814 34.7864C33.4284 34.58 33.4481 34.372 33.4481 34.165C33.9632 34.3116 34.4112 34.3835 34.8065 34.3835C35.7159 34.3835 36.4135 33.9748 36.7208 33.2623C37.0197 32.5679 36.9028 31.6792 36.3729 30.6197C36.1985 30.2713 35.9818 29.911 35.7375 29.5588C36.4103 29.1194 37.1587 28.4352 37.5962 27.4146C37.9335 26.6274 37.6882 26.0609 37.5114 25.7936C36.9609 24.9602 35.8272 24.9602 35.4543 24.9602ZM31.2248 34.2992C31.2128 34.3519 31.1903 34.4497 30.9762 34.5627C30.8357 34.637 30.7059 34.6696 30.5564 34.6696C30.1544 34.6696 29.6014 34.4425 28.9009 34.155C27.5708 33.6087 25.7489 32.8607 22.9995 32.8607C20.2496 32.8607 18.4283 33.6087 17.0981 34.155C16.3976 34.4425 15.8446 34.6696 15.4426 34.6696C15.2926 34.6696 15.1628 34.6365 15.0223 34.5627C14.8081 34.4502 14.7856 34.3519 14.7736 34.2992C14.7228 34.0792 14.8081 33.7452 14.9466 33.4141C16.0262 33.1129 17.1517 32.8492 18.3117 32.6446C20.0803 32.3317 21.5648 32.1042 23.0574 32.1042H23.1326C24.6779 32.1042 26.2764 32.3954 27.6866 32.6446C28.8462 32.8492 29.9718 33.1085 31.0513 33.4098C31.1908 33.7409 31.2756 34.0792 31.2248 34.2992ZM33.7054 28.1141L31.9316 28.5875L33.2062 29.9359C33.6292 30.3835 34.0323 30.9355 34.3121 31.4501C34.4783 31.7563 34.5708 31.993 34.6207 32.1611C34.4257 32.1377 34.1162 32.074 33.6561 31.9134C33.2967 31.7883 32.9311 31.6686 32.5603 31.5541C31.4932 31.2243 30.381 30.9388 29.2339 30.7002C28.8501 30.6207 28.4629 30.5459 28.0715 30.4769C26.8055 30.2531 25.3962 29.9033 23.942 29.8314C23.6732 29.8181 23.4039 29.7082 23.1327 29.7082C23.1034 29.7082 23.0737 29.7082 23.0445 29.7082C22.7239 29.7082 22.4058 29.8223 22.0871 29.8396C20.7671 29.911 19.4407 30.1587 17.9261 30.4261C17.5351 30.4951 17.1474 30.5952 16.7637 30.6753C15.6165 30.9134 14.5044 31.2119 13.4372 31.5416C13.0664 31.6561 12.7008 31.7821 12.3414 31.9076C11.8814 32.0681 11.5718 32.1352 11.3769 32.1587C11.4263 31.9905 11.5192 31.7553 11.685 31.4491C11.9648 30.9343 12.3678 30.3833 12.7909 29.9354L14.0809 28.5913L12.2916 28.1141C12.2308 28.0949 11.4215 27.8323 10.8421 27.1811C10.9801 27.1897 11.1076 27.2018 11.2049 27.2113L11.2241 27.2133C11.6448 27.2536 12.0358 27.2732 12.4205 27.2732C13.5715 27.2732 14.6577 27.093 15.9438 26.6895C16.5375 26.5031 17.1273 26.2989 17.698 26.1011C18.4772 25.8312 19.2127 25.5763 19.9693 25.3584C20.9587 25.0737 21.7733 24.9515 22.5328 24.8907C22.6727 24.8791 22.8251 24.9165 22.9804 24.9165H22.999H23.0177C23.1725 24.9165 23.3253 24.8791 23.4634 24.8901C24.2228 24.951 25.0379 25.0924 26.0274 25.3774C26.784 25.595 27.5195 25.8404 28.2986 26.1101C28.8693 26.3075 29.4591 26.5073 30.0528 26.6938C31.3389 27.0972 32.4256 27.275 33.5765 27.275C33.9614 27.275 34.3528 27.2539 34.7731 27.2137L34.7922 27.2113C34.89 27.2017 35.0169 27.1893 35.155 27.1811C34.5756 27.8319 33.7668 28.0949 33.7054 28.1141Z"/>
</mask>
<path d="M35.4543 24.9602C35.1022 24.9602 34.7759 24.9919 34.5804 25.0105L34.5617 25.0125C34.212 25.046 33.8895 25.0623 33.5761 25.0623C32.6475 25.0623 31.7917 24.918 30.7145 24.5802C30.1519 24.4035 29.5774 24.2046 29.0216 24.0119C28.2496 23.7446 27.4509 23.468 26.6382 23.2338C25.503 22.907 24.55 22.7206 23.6395 22.6477C23.4364 22.6314 23.2189 22.6247 22.9989 22.628C22.779 22.6247 22.5614 22.6314 22.3583 22.6477C21.4474 22.7206 20.4948 22.907 19.3596 23.2338C18.5465 23.4676 17.7482 23.744 16.9763 24.0119C16.4209 24.2046 15.8464 24.4034 15.2838 24.5802C14.2067 24.918 13.3509 25.0623 12.4222 25.0623C12.1088 25.0623 11.7863 25.046 11.4366 25.0125L11.4179 25.0105C11.2229 24.9919 10.8961 24.9602 10.5439 24.9602C10.1711 24.9602 9.03747 24.9602 8.48739 25.7945C8.31102 26.0618 8.06573 26.6283 8.40308 27.4155C8.84054 28.4361 9.58897 29.1204 10.2613 29.5593C10.0169 29.911 9.80034 30.2719 9.62634 30.6202C9.09642 31.6796 8.97947 32.5685 9.27849 33.2628C9.58564 33.9752 10.2828 34.384 11.1922 34.384C11.5876 34.384 12.0356 34.3121 12.5506 34.1655C12.5502 34.372 12.5703 34.58 12.6173 34.7864C12.7868 35.5344 13.2622 36.1329 13.9915 36.5173C14.4472 36.7574 14.9355 36.879 15.4424 36.879C16.2809 36.879 17.0486 36.5637 17.938 36.1987C19.1622 35.696 20.6859 35.0697 22.9994 35.0697C25.3128 35.0697 26.8365 35.6955 28.0613 36.1987C28.9506 36.5637 29.7182 36.879 30.5563 36.879H30.5567C31.0637 36.879 31.5515 36.7574 32.0072 36.5173C32.7365 36.1329 33.2114 35.5345 33.3814 34.7864C33.4284 34.58 33.4481 34.372 33.4481 34.165C33.9632 34.3116 34.4112 34.3835 34.8065 34.3835C35.7159 34.3835 36.4135 33.9748 36.7208 33.2623C37.0197 32.5679 36.9028 31.6792 36.3729 30.6197C36.1985 30.2713 35.9818 29.911 35.7375 29.5588C36.4103 29.1194 37.1587 28.4352 37.5962 27.4146C37.9335 26.6274 37.6882 26.0609 37.5114 25.7936C36.9609 24.9602 35.8272 24.9602 35.4543 24.9602ZM31.2248 34.2992C31.2128 34.3519 31.1903 34.4497 30.9762 34.5627C30.8357 34.637 30.7059 34.6696 30.5564 34.6696C30.1544 34.6696 29.6014 34.4425 28.9009 34.155C27.5708 33.6087 25.7489 32.8607 22.9995 32.8607C20.2496 32.8607 18.4283 33.6087 17.0981 34.155C16.3976 34.4425 15.8446 34.6696 15.4426 34.6696C15.2926 34.6696 15.1628 34.6365 15.0223 34.5627C14.8081 34.4502 14.7856 34.3519 14.7736 34.2992C14.7228 34.0792 14.8081 33.7452 14.9466 33.4141C16.0262 33.1129 17.1517 32.8492 18.3117 32.6446C20.0803 32.3317 21.5648 32.1042 23.0574 32.1042H23.1326C24.6779 32.1042 26.2764 32.3954 27.6866 32.6446C28.8462 32.8492 29.9718 33.1085 31.0513 33.4098C31.1908 33.7409 31.2756 34.0792 31.2248 34.2992ZM33.7054 28.1141L31.9316 28.5875L33.2062 29.9359C33.6292 30.3835 34.0323 30.9355 34.3121 31.4501C34.4783 31.7563 34.5708 31.993 34.6207 32.1611C34.4257 32.1377 34.1162 32.074 33.6561 31.9134C33.2967 31.7883 32.9311 31.6686 32.5603 31.5541C31.4932 31.2243 30.381 30.9388 29.2339 30.7002C28.8501 30.6207 28.4629 30.5459 28.0715 30.4769C26.8055 30.2531 25.3962 29.9033 23.942 29.8314C23.6732 29.8181 23.4039 29.7082 23.1327 29.7082C23.1034 29.7082 23.0737 29.7082 23.0445 29.7082C22.7239 29.7082 22.4058 29.8223 22.0871 29.8396C20.7671 29.911 19.4407 30.1587 17.9261 30.4261C17.5351 30.4951 17.1474 30.5952 16.7637 30.6753C15.6165 30.9134 14.5044 31.2119 13.4372 31.5416C13.0664 31.6561 12.7008 31.7821 12.3414 31.9076C11.8814 32.0681 11.5718 32.1352 11.3769 32.1587C11.4263 31.9905 11.5192 31.7553 11.685 31.4491C11.9648 30.9343 12.3678 30.3833 12.7909 29.9354L14.0809 28.5913L12.2916 28.1141C12.2308 28.0949 11.4215 27.8323 10.8421 27.1811C10.9801 27.1897 11.1076 27.2018 11.2049 27.2113L11.2241 27.2133C11.6448 27.2536 12.0358 27.2732 12.4205 27.2732C13.5715 27.2732 14.6577 27.093 15.9438 26.6895C16.5375 26.5031 17.1273 26.2989 17.698 26.1011C18.4772 25.8312 19.2127 25.5763 19.9693 25.3584C20.9587 25.0737 21.7733 24.9515 22.5328 24.8907C22.6727 24.8791 22.8251 24.9165 22.9804 24.9165H22.999H23.0177C23.1725 24.9165 23.3253 24.8791 23.4634 24.8901C24.2228 24.951 25.0379 25.0924 26.0274 25.3774C26.784 25.595 27.5195 25.8404 28.2986 26.1101C28.8693 26.3075 29.4591 26.5073 30.0528 26.6938C31.3389 27.0972 32.4256 27.275 33.5765 27.275C33.9614 27.275 34.3528 27.2539 34.7731 27.2137L34.7922 27.2113C34.89 27.2017 35.0169 27.1893 35.155 27.1811C34.5756 27.8319 33.7668 28.0949 33.7054 28.1141Z" fill="#7B8E98" stroke="white" stroke-width="0.2" mask="url(#path-3-inside-2_83_2132)"/>
</g>
</g>
</g>
</g>
<defs>
<clipPath id="clip0_83_2132">
<rect width="46" height="46" fill="white"/>
</clipPath>
</defs>
</svg>
